<?xml version="1.0" encoding="UTF-8"?>
<svg version="1.1" xmlns="http://www.w3.org/2000/svg" width="529" height="471">
<path d="M0 0 C2.89587555 10.99563403 4.69728015 23.28119218 0 34 C-5.57502119 42.56574577 -13.08880184 49.65674754 -20.5 56.625 C-20.9902705 57.08616589 -21.480541 57.54733177 -21.98566818 58.02247238 C-28.19105266 63.83355773 -34.53199103 69.48271379 -41 75 C-39.3536375 79.21967133 -36.23106338 82.04430561 -33.07836914 85.16886902 C-32.46553857 85.78411401 -31.852708 86.39935899 -31.2213068 87.03324777 C-29.16398952 89.09620653 -27.09959329 91.15193161 -25.03515625 93.20776367 C-23.55986996 94.68412271 -22.08501669 96.16091456 -20.61056519 97.6381073 C-16.60285501 101.65066939 -12.58891505 105.65694615 -8.5737114 109.66200805 C-4.37797398 113.8489726 -0.18749871 118.04119751 4.00366211 122.23274231 C11.04167953 129.26982287 18.08356162 136.30301721 25.12792969 143.33374023 C33.28148654 151.47156221 41.42979562 159.61460837 49.57512188 167.76066798 C57.40125336 175.587409 65.2302348 183.41129236 73.06082153 191.23357582 C76.39809522 194.56731181 79.73451182 197.90190216 83.07028198 201.23714256 C86.99455056 205.16040937 90.92134976 209.08112562 94.85015488 212.99984932 C96.29503678 214.44180127 97.73906457 215.88460964 99.18219376 217.32831573 C101.14528412 219.29189402 103.11140293 221.25238732 105.07836914 223.21208191 C105.94304762 224.0790833 105.94304762 224.0790833 106.82519436 224.96359986 C109.64518953 227.83543781 109.64518953 227.83543781 113 230 C113.268125 229.360625 113.53625 228.72125 113.8125 228.0625 C115 226 115 226 118 225 C118.70151152 223.6846659 119.36525925 222.34882408 120 221 C121.5 219.25 121.5 219.25 123 218 C123.66 218 124.32 218 125 218 C125.268125 217.360625 125.53625 216.72125 125.8125 216.0625 C127 214 127 214 130 213 C130.33 212.34 130.66 211.68 131 211 C132 209 132 209 135 208 C135.70151152 206.6846659 136.36525925 205.34882408 137 204 C138.5 202.25 138.5 202.25 140 201 C140.66 201 141.32 201 142 201 C142.268125 200.360625 142.53625 199.72125 142.8125 199.0625 C144 197 144 197 147 196 C147.70151152 194.6846659 148.36525925 193.34882408 149 192 C150.5 190.25 150.5 190.25 152 189 C152.66 189 153.32 189 154 189 C154.268125 188.360625 154.53625 187.72125 154.8125 187.0625 C156 185 156 185 159 184 C159.70151152 182.6846659 160.36525925 181.34882408 161 180 C162.5 178.25 162.5 178.25 164 177 C164.66 177 165.32 177 166 177 C166.268125 176.360625 166.53625 175.72125 166.8125 175.0625 C168 173 168 173 171 172 C171.69431907 170.6808551 172.35703522 169.34492324 173 168 C174.18202625 166.64746333 175.42085343 165.34363858 176.69522095 164.07772827 C177.46365829 163.30943192 178.23209564 162.54113556 179.02381897 161.7495575 C179.86754562 160.91616348 180.71127228 160.08276947 181.58056641 159.22412109 C182.91236687 157.89670143 182.91236687 157.89670143 184.27107239 156.54246521 C186.19997218 154.62117864 188.13057425 152.70180247 190.06428909 150.78538132 C193.119573 147.75714785 196.16720862 144.72129531 199.2137146 141.68423462 C205.67824945 135.24189035 212.15120341 128.80803522 218.625 122.375 C225.62064316 115.42336982 232.61483673 108.47031828 239.59934175 101.50749457 C242.63062004 98.48620406 245.66671404 95.46986203 248.70653176 92.45716453 C251.034331 90.14772433 253.35575399 87.83188875 255.67822266 85.51708984 C256.52599777 84.67964737 257.37377289 83.8422049 258.24723816 82.97938538 C259.01003586 82.21672867 259.77283356 81.45407196 260.55874634 80.66830444 C261.22721399 80.00427801 261.89568165 79.34025158 262.5844059 78.65610313 C264.21658426 77.10972909 264.21658426 77.10972909 264 75 C260.6033844 71.26410029 256.78040898 68.06270806 252.94529724 64.78771973 C222.07753477 38.16834232 222.07753477 38.16834232 220.62890625 24.28125 C220.17581383 16.4462934 221.22785277 8.62477705 223 1 C227 1 227 1 229.75 3.375 C232 6 232 6 232 8 C232.99 8.33 233.98 8.66 235 9 C236.6484375 10.671875 236.6484375 10.671875 238.375 12.75 C241.12311037 15.98884437 243.9542024 19.03435497 247 22 C247.845625 22.86625 248.69125 23.7325 249.5625 24.625 C251.88354633 26.99861757 251.88354633 26.99861757 254.3125 28.6875 C255.1478125 29.3371875 255.1478125 29.3371875 256 30 C256 30.66 256 31.32 256 32 C256.66 32 257.32 32 258 32 C259.42567444 33.44567871 259.42567444 33.44567871 261.09008789 35.45898438 C265.03063392 40.09003016 269.24596769 44.37324978 273.55859375 48.65625 C274.34774673 49.44398804 275.13689972 50.23172607 275.94996643 51.04333496 C278.44345012 53.53127102 280.94040784 56.01568624 283.4375 58.5 C285.14020587 60.1976841 286.84268207 61.89559858 288.54492188 63.59375 C292.69396412 67.7318328 296.84585576 71.86703935 301 76 C299.71937515 77.7074998 298.38232443 79.37373596 297 81 C296.34 81 295.68 81 295 81 C294.59958282 81.8878036 294.59958282 81.8878036 294.1910764 82.79354262 C292.97778056 85.04116129 291.74360996 86.50499033 289.94277763 88.30331802 C289.31178433 88.93829342 288.68079103 89.57326882 288.03067672 90.2274859 C287.33613171 90.91620522 286.6415867 91.60492455 285.92599487 92.31451416 C285.1892466 93.05297128 284.45249832 93.79142841 283.69342434 94.55226302 C281.21685238 97.03213628 278.73318661 99.50478115 276.24951172 101.97753906 C274.47541078 103.75107603 272.70174978 105.52505317 270.92849731 107.29943848 C267.10638792 111.12200371 263.28123099 114.94147788 259.45327377 118.75818634 C253.918698 124.27650889 248.3896523 129.80034499 242.86194123 135.3255429 C233.8934764 144.28963035 224.92055421 153.24924226 215.94482422 162.20605469 C207.2256849 170.90683632 198.50864837 179.6097158 189.79443359 188.31542969 C189.25729984 188.852038 188.72016608 189.38864631 188.16675554 189.94151548 C185.4721296 192.63353135 182.77754497 195.32558856 180.08298087 198.01766634 C157.72838819 220.35152518 135.36648617 242.67805184 113 265 C111.35 264.34 109.7 263.68 108 263 C108 262.34 108 261.68 108 261 C107.34 261 106.68 261 106 261 C106 260.34 106 259.68 106 259 C105.360625 258.731875 104.72125 258.46375 104.0625 258.1875 C102 257 102 257 101 254 C100.34 254 99.68 254 99 254 C99 253.34 99 252.68 99 252 C98.01 251.67 97.02 251.34 96 251 C96 250.34 96 249.68 96 249 C95.34 249 94.68 249 94 249 C94 248.34 94 247.68 94 247 C93.360625 246.731875 92.72125 246.46375 92.0625 246.1875 C90 245 90 245 89 242 C88.34 242 87.68 242 87 242 C87 241.34 87 240.68 87 240 C86.01 239.67 85.02 239.34 84 239 C84 238.34 84 237.68 84 237 C83.34 237 82.68 237 82 237 C82 236.34 82 235.68 82 235 C81.360625 234.731875 80.72125 234.46375 80.0625 234.1875 C78 233 78 233 77 230 C76.34 229.67 75.68 229.34 75 229 C73 228 73 228 72 225 C71.34 225 70.68 225 70 225 C70 224.34 70 223.68 70 223 C69.360625 222.731875 68.72125 222.46375 68.0625 222.1875 C66 221 66 221 65 218 C64.34 217.67 63.68 217.34 63 217 C61 216 61 216 60 213 C59.34 213 58.68 213 58 213 C58 212.34 58 211.68 58 211 C57.360625 210.731875 56.72125 210.46375 56.0625 210.1875 C54 209 54 209 53 206 C52.34 205.67 51.68 205.34 51 205 C49 204 49 204 48 201 C47.34 201 46.68 201 46 201 C46 200.34 46 199.68 46 199 C45.360625 198.731875 44.72125 198.46375 44.0625 198.1875 C42 197 42 197 41 194 C40.34 193.67 39.68 193.34 39 193 C37 192 37 192 36 189 C35.34 189 34.68 189 34 189 C34 188.34 34 187.68 34 187 C33.360625 186.731875 32.72125 186.46375 32.0625 186.1875 C30 185 30 185 29 182 C28.34 181.67 27.68 181.34 27 181 C25 180 25 180 24 177 C23.34 177 22.68 177 22 177 C22 176.34 22 175.68 22 175 C21.360625 174.731875 20.72125 174.46375 20.0625 174.1875 C18 173 18 173 17 170 C16.34 169.67 15.68 169.34 15 169 C13 168 13 168 12 165 C11.34 165 10.68 165 10 165 C10 164.34 10 163.68 10 163 C9.01 162.67 8.02 162.34 7 162 C7 161.34 7 160.68 7 160 C6.34 160 5.68 160 5 160 C5 159.34 5 158.68 5 158 C4.360625 157.731875 3.72125 157.46375 3.0625 157.1875 C1 156 1 156 0 153 C-0.66 153 -1.32 153 -2 153 C-2 152.34 -2 151.68 -2 151 C-2.99 150.67 -3.98 150.34 -5 150 C-5 149.34 -5 148.68 -5 148 C-5.66 148 -6.32 148 -7 148 C-7 147.34 -7 146.68 -7 146 C-7.639375 145.731875 -8.27875 145.46375 -8.9375 145.1875 C-11 144 -11 144 -12 141 C-12.66 141 -13.32 141 -14 141 C-14 140.34 -14 139.68 -14 139 C-14.99 138.67 -15.98 138.34 -17 138 C-17 137.34 -17 136.68 -17 136 C-17.66 136 -18.32 136 -19 136 C-19 135.34 -19 134.68 -19 134 C-19.639375 133.731875 -20.27875 133.46375 -20.9375 133.1875 C-23 132 -23 132 -24 129 C-24.66 128.67 -25.32 128.34 -26 128 C-28 127 -28 127 -29 124 C-29.66 124 -30.32 124 -31 124 C-31 123.34 -31 122.68 -31 122 C-31.639375 121.731875 -32.27875 121.46375 -32.9375 121.1875 C-35 120 -35 120 -36 117 C-36.99 116.505 -36.99 116.505 -38 116 C-40 115 -40 115 -41 112 C-41.66 112 -42.32 112 -43 112 C-43 111.34 -43 110.68 -43 110 C-43.639375 109.731875 -44.27875 109.46375 -44.9375 109.1875 C-47 108 -47 108 -48 105 C-48.99 105 -49.98 105 -51 105 C-51.66 103.35 -52.32 101.7 -53 100 C-53.66 100 -54.32 100 -55 100 C-55 99.34 -55 98.68 -55 98 C-55.804375 97.690625 -55.804375 97.690625 -56.625 97.375 C-59.91978009 95.46749574 -62.59363628 92.95180616 -65 90 C-65 89.34 -65 88.68 -65 88 C-65.66 88 -66.32 88 -67 88 C-67 87.34 -67 86.68 -67 86 C-67.9590625 85.5978125 -67.9590625 85.5978125 -68.9375 85.1875 C-71 84 -71 84 -72 81 C-72.99 80.5359375 -72.99 80.5359375 -74 80.0625 C-76 79 -76 79 -76.79459858 77.14161301 C-77 75 -77 75 -75.95733166 73.33650589 C-75.13023174 72.51242296 -75.13023174 72.51242296 -74.28642273 71.67169189 C-73.65962616 71.03513168 -73.03282959 70.39857147 -72.38703918 69.74272156 C-71.68528061 69.05579727 -70.98352203 68.36887299 -70.26049805 67.66113281 C-69.53233887 66.92903091 -68.80417969 66.19692902 -68.05395508 65.44264221 C-65.6351901 63.01714454 -63.19890831 60.61009777 -60.76171875 58.203125 C-59.08261693 56.52827055 -57.40447183 54.85245645 -55.72724915 53.17572021 C-52.20637104 49.66101707 -48.67736469 46.15475935 -45.1418457 42.65478516 C-40.59998803 38.15821782 -36.07355145 33.64651703 -31.55243206 29.12910843 C-28.08665767 25.66775352 -24.61547976 22.2118631 -21.14234352 18.75789642 C-19.47104475 17.09550459 -17.80083721 15.43201496 -16.13171959 13.76743317 C-13.80213411 11.4468469 -11.46600451 9.13307052 -9.12768555 6.82128906 C-8.43199966 6.12626785 -7.73631378 5.43124664 -7.01954651 4.71516418 C-6.38429047 4.08988327 -5.74903442 3.46460236 -5.0945282 2.82037354 C-4.54199718 2.27249302 -3.98946615 1.7246125 -3.42019176 1.16012955 C-2 0 -2 0 0 0 Z " fill="#2C3188" transform="translate(144,133)"/>
<path d="M0 0 C2.95921789 3.80470872 3.7525146 7.21528227 4 12 C3.05089215 17.00438684 1.61703936 20.38296064 -2 24 C-3.65 24.66 -5.3 25.32 -7 26 C-7 35.9 -7 45.8 -7 56 C-2.68228516 55.96519531 -2.68228516 55.96519531 1.72265625 55.9296875 C4.52595581 55.91406763 7.32925042 55.90193619 10.13256836 55.89013672 C12.07334582 55.8801102 14.0141083 55.86648557 15.95483398 55.84912109 C18.75247916 55.82472511 21.54992371 55.81348319 24.34765625 55.8046875 C25.2083522 55.79436493 26.06904816 55.78404236 26.95582581 55.77340698 C35.03105625 55.77191993 42.05481692 57.15808313 48 63 C52.87593765 70.01192242 53.17956667 77.72457469 53.1875 86.0625 C53.19974609 86.74376953 53.21199219 87.42503906 53.22460938 88.12695312 C53.23712129 92.46858804 52.64496478 95.98237227 51 100 C50 101 50 101 46.625 101.25 C43 101 43 101 41.29882812 99.80834961 C39.56015344 97.38760461 39.61654075 95.78153483 39.59375 92.81640625 C39.57183594 91.80642578 39.54992187 90.79644531 39.52734375 89.75585938 C39.51832031 88.70205078 39.50929688 87.64824219 39.5 86.5625 C39.48210519 84.48031114 39.4513618 82.39818328 39.40625 80.31640625 C39.39916016 79.39287354 39.39207031 78.46934082 39.38476562 77.51782227 C38.8931158 74.30057312 38.53912476 73.09529523 36 71 C32.84782103 70.37586765 29.72489257 70.39498523 26.51953125 70.390625 C25.59154221 70.37408875 24.66355316 70.35755249 23.70744324 70.34051514 C20.74239565 70.29191573 17.77786134 70.27063778 14.8125 70.25 C12.80270838 70.2218503 10.7929408 70.19192429 8.78320312 70.16015625 C3.85551099 70.08615355 -1.0718942 70.03665194 -6 70 C-5.89083504 70.88874313 -5.89083504 70.88874313 -5.77946472 71.79544067 C-5.09656989 77.58561318 -4.97753362 83.05667978 -5.3125 88.875 C-5.36567383 90.13570312 -5.36567383 90.13570312 -5.41992188 91.421875 C-5.48469727 92.63230469 -5.48469727 92.63230469 -5.55078125 93.8671875 C-5.58856689 94.59019043 -5.62635254 95.31319336 -5.6652832 96.05810547 C-6 98 -6 98 -8 101 C-9.875 101.3984375 -9.875 101.3984375 -12 101.375 C-12.70125 101.38273437 -13.4025 101.39046875 -14.125 101.3984375 C-16 101 -16 101 -18 98 C-18.22705078 95.08911133 -18.22705078 95.08911133 -18.1953125 91.58203125 C-18.18886719 90.32841797 -18.18242187 89.07480469 -18.17578125 87.78320312 C-18.15902344 86.47287109 -18.14226562 85.16253906 -18.125 83.8125 C-18.11496639 82.47722013 -18.1058412 81.14193311 -18.09765625 79.80664062 C-18.07405292 76.53757985 -18.04112594 73.26887972 -18 70 C-23.92706319 70.04408151 -29.85305383 70.11383922 -35.77954102 70.20751953 C-37.79605579 70.2357634 -39.81268198 70.25696088 -41.8293457 70.27099609 C-44.7266559 70.29237846 -47.62262172 70.33900366 -50.51953125 70.390625 C-51.87435356 70.39246796 -51.87435356 70.39246796 -53.25654602 70.39434814 C-58.05774067 70.40468116 -58.05774067 70.40468116 -62.06713867 72.72167969 C-63.13300113 75.32482768 -63.38347232 77.25049194 -63.40625 80.0625 C-63.42816406 81.02414063 -63.45007813 81.98578125 -63.47265625 82.9765625 C-63.48167969 83.97429687 -63.49070313 84.97203125 -63.5 86 C-63.51790094 87.97933242 -63.54865443 89.95860039 -63.59375 91.9375 C-63.60438477 93.25041016 -63.60438477 93.25041016 -63.61523438 94.58984375 C-64.08355112 97.52336082 -64.91305527 98.90104753 -67 101 C-70.5625 101.375 -70.5625 101.375 -74 101 C-76.74210615 98.25789385 -76.25797781 96.68862434 -76.265625 92.85546875 C-76.26820313 91.62119141 -76.27078125 90.38691406 -76.2734375 89.11523438 C-76.26570312 87.81908203 -76.25796875 86.52292969 -76.25 85.1875 C-76.25773438 83.90294922 -76.26546875 82.61839844 -76.2734375 81.29492188 C-76.27085937 80.05677734 -76.26828125 78.81863281 -76.265625 77.54296875 C-76.26336914 76.40883545 -76.26111328 75.27470215 -76.25878906 74.10620117 C-75.8005755 68.6063416 -73.70983565 65.01898863 -70 61 C-63.2001503 55.67837849 -56.70777343 55.85309208 -48.4453125 55.90234375 C-47.54376434 55.9037587 -46.64221619 55.90517365 -45.71334839 55.90663147 C-42.850531 55.9122026 -39.98779352 55.92474974 -37.125 55.9375 C-35.17708447 55.94251873 -33.2291677 55.94708099 -31.28125 55.95117188 C-26.52080282 55.96216258 -21.76041493 55.97940723 -17 56 C-17.0714624 55.09233887 -17.1429248 54.18467773 -17.21655273 53.24951172 C-17.72505086 46.52845443 -18.1499487 39.86527655 -18.0625 33.125 C-18.05798828 32.42503906 -18.05347656 31.72507813 -18.04882812 31.00390625 C-18.03740341 29.33589722 -18.01949534 27.66793423 -18 26 C-19.32 25.34 -20.64 24.68 -22 24 C-22 23.34 -22 22.68 -22 22 C-22.66 22 -23.32 22 -24 22 C-27.40652286 18.0693967 -27.39851405 14.32237929 -27.21484375 9.36328125 C-26.78198553 4.60184083 -25.64473554 2.64473554 -22.25 -0.75 C-15.57235452 -5.37298534 -6.43334542 -5.14667634 0 0 Z " fill="#9F252F" transform="translate(267,159)"/>
<path d="M0 0 C1.00546875 0.25652344 2.0109375 0.51304688 3.046875 0.77734375 C17.72243749 4.86754239 31.17200477 12.17200477 42 23 C42.73522569 28.1465798 41.23611613 30.69857996 38.2890625 34.6796875 C37.86367188 35.11539063 37.43828125 35.55109375 37 36 C36.34 36 35.68 36 35 36 C34.67 36.99 34.34 37.98 34 39 C29.75416763 38.47674601 27.67489808 37.19109111 24.5 34.375 C10.90452074 23.07248963 -4.88913436 17.56085594 -22.4375 17.75 C-23.81989868 17.76123901 -23.81989868 17.76123901 -25.23022461 17.77270508 C-40.82315321 18.01942427 -52.7182615 22.2949736 -65.50390625 31.328125 C-68 33 -68 33 -71 34 C-71 34.66 -71 35.32 -71 36 C-73.12150263 38.12150263 -74.35110958 38.96584787 -77.375 39.125 C-81.27574008 37.45325425 -83.65372731 34.49118926 -86 31 C-86 30.34 -86 29.68 -86 29 C-86.66 29 -87.32 29 -88 29 C-88.3125 26.8125 -88.3125 26.8125 -88 24 C-84.59763679 19.87592339 -80.43245208 16.927091 -76 14 C-75.34 14 -74.68 14 -74 14 C-74 13.34 -74 12.68 -74 12 C-51.36670988 -0.12927649 -25.60634805 -7.04577187 0 0 Z " fill="#AC2118" transform="translate(278,70)"/>
<path d="M0 0 C4.61867863 3.71930105 4.61867863 3.71930105 5.7578125 6.33984375 C5.98319923 9.1388324 5.14153856 10.35110816 3.61328125 12.67578125 C3.16339844 13.3821875 2.71351563 14.08859375 2.25 14.81640625 C1.81300781 15.3475 1.37601562 15.87859375 0.92578125 16.42578125 C0.26578125 16.42578125 -0.39421875 16.42578125 -1.07421875 16.42578125 C-1.73421875 17.74578125 -2.39421875 19.06578125 -3.07421875 20.42578125 C-6.20972588 20.74919894 -7.63119104 20.75158448 -10.21484375 18.8515625 C-11.25898438 17.80548828 -11.25898438 17.80548828 -12.32421875 16.73828125 C-22.26832319 7.42083679 -31.9604023 4.9535685 -45.39453125 5.1796875 C-54.55901717 5.79259898 -62.41793141 9.43738351 -70.07421875 14.42578125 C-70.40421875 15.08578125 -70.73421875 15.74578125 -71.07421875 16.42578125 C-71.73421875 16.42578125 -72.39421875 16.42578125 -73.07421875 16.42578125 C-73.07421875 17.08578125 -73.07421875 17.74578125 -73.07421875 18.42578125 C-73.73421875 18.42578125 -74.39421875 18.42578125 -75.07421875 18.42578125 C-75.07421875 19.08578125 -75.07421875 19.74578125 -75.07421875 20.42578125 C-77.76171875 20.86328125 -77.76171875 20.86328125 -81.07421875 20.42578125 C-83.1812946 18.35137324 -84.72982727 16.05507786 -86.07421875 13.42578125 C-86.07421875 12.76578125 -86.07421875 12.10578125 -86.07421875 11.42578125 C-86.73421875 11.42578125 -87.39421875 11.42578125 -88.07421875 11.42578125 C-88.88671875 8.73828125 -88.88671875 8.73828125 -89.07421875 5.42578125 C-87.44595787 3.3090421 -86.13136166 2.05356635 -84.07421875 0.42578125 C-83.10742188 -0.41146484 -83.10742188 -0.41146484 -82.12109375 -1.265625 C-58.0267269 -21.32981898 -23.8841788 -18.1267873 0 0 Z " fill="#AC241B" transform="translate(297.07421875,111.57421875)"/>
<path d="M0 0 C1.7890625 1.56640625 1.7890625 1.56640625 3 3 C3 3.66 3 4.32 3 5 C3.66 5 4.32 5 5 5 C5.63175608 10.18039987 4.25817319 12.66878358 1.2890625 16.6796875 C0.86367188 17.11539063 0.43828125 17.55109375 0 18 C-0.66 18 -1.32 18 -2 18 C-2 18.66 -2 19.32 -2 20 C-3.98 20 -5.96 20 -8 20 C-8 19.34 -8 18.68 -8 18 C-8.66 18 -9.32 18 -10 18 C-10.5775 17.38125 -11.155 16.7625 -11.75 16.125 C-15.79594799 12.3038269 -20.41916492 11.53231477 -25.9140625 11.6796875 C-30.75774501 12.42347395 -34.79080497 14.71967585 -38.125 18.25 C-40 20 -40 20 -42.87109375 20.40625 C-46 20 -46 20 -48.15234375 17.953125 C-48.74144531 17.06109375 -49.33054688 16.1690625 -49.9375 15.25 C-50.54464844 14.36828125 -51.15179688 13.4865625 -51.77734375 12.578125 C-53 10 -53 10 -52.82421875 7.85546875 C-50.34513792 2.27459958 -45.36955301 -2.24186895 -40 -5 C-25.41350012 -10.08594835 -12.65692244 -8.97864715 0 0 Z " fill="#AC1E15" transform="translate(279,134)"/>
<path d="M0 0 C2.95921789 3.80470872 3.7525146 7.21528227 4 12 C3.04384378 17.04155099 1.5191035 20.2676175 -2 24 C-5 26 -5 26 -8 26 C-8 35.24 -8 44.48 -8 54 C-8.33 53.34 -8.66 52.68 -9 52 C-10.485 51.505 -10.485 51.505 -12 51 C-12.33 51.66 -12.66 52.32 -13 53 C-13.99 53 -14.98 53 -16 53 C-15.96447021 52.2886792 -15.92894043 51.5773584 -15.89233398 50.84448242 C-15.73485426 47.62574412 -15.58607666 44.40666103 -15.4375 41.1875 C-15.38142578 40.06794922 -15.32535156 38.94839844 -15.26757812 37.79492188 C-15.21923828 36.72177734 -15.17089844 35.64863281 -15.12109375 34.54296875 C-15.0739624 33.55321045 -15.02683105 32.56345215 -14.97827148 31.54370117 C-14.8704322 28.87518209 -14.8704322 28.87518209 -16 26 C-19.00847418 24.77479736 -19.00847418 24.77479736 -22 24 C-22 23.34 -22 22.68 -22 22 C-22.66 22 -23.32 22 -24 22 C-27.40652286 18.0693967 -27.39851405 14.32237929 -27.21484375 9.36328125 C-26.78198553 4.60184083 -25.64473554 2.64473554 -22.25 -0.75 C-15.57235452 -5.37298534 -6.43334542 -5.14667634 0 0 Z " fill="#AC2219" transform="translate(267,159)"/>
<path d="M0 0 C3.35096135 3.15947784 5.07448405 6.60320882 6.1875 11.0625 C6.13741386 15.74555414 4.701976 18.4579907 1.6875 22 C-1.53514802 24.65868462 -3.09928158 25.2160447 -7.1875 25.25 C-7.95835937 25.26417969 -8.72921875 25.27835937 -9.5234375 25.29296875 C-12.03084888 25.04051607 -13.64511902 24.31443467 -15.8125 23.0625 C-15.8125 22.4025 -15.8125 21.7425 -15.8125 21.0625 C-16.4725 21.0625 -17.1325 21.0625 -17.8125 21.0625 C-20.72016097 16.52654889 -21.19256969 13.35746084 -20.390625 8.1796875 C-19.34438658 4.34819276 -17.32833659 1.96690671 -13.953125 -0.046875 C-9.43843403 -1.92525008 -4.56802853 -1.52267618 0 0 Z " fill="#9F262F" transform="translate(262.8125,262.9375)"/>
<path d="M0 0 C4.11293161 1.90413501 5.64916002 3.4001768 7.9375 7.3125 C9.41537572 12.44159808 8.94524406 15.92046307 6.75 20.75 C4.62310585 23.48457819 3.21978612 24.67008834 0 26 C-4.89262491 26.56015741 -8.66266785 26.46864029 -13 24 C-13 23.34 -13 22.68 -13 22 C-13.66 22 -14.32 22 -15 22 C-17.63046344 17.43351548 -17.66659518 13.1539188 -17 8 C-13.19411999 0.38823998 -8.07325531 -1.10726939 0 0 Z " fill="#9F2932" transform="translate(318,262)"/>
<path d="M0 0 C3.54966971 1.95119265 5.75989575 4.63984363 8 8 C8.66175067 12.04712777 8.94221821 16.22065714 6.984375 19.91796875 C4.45077704 23.00865301 1.76817534 25.71088355 -2.26953125 26.37109375 C-6.75791286 26.48830187 -9.98845813 26.56577717 -13.5625 23.625 C-17.66781195 19.20389483 -17.33438233 15.79774895 -17.28515625 9.92578125 C-16.91699154 6.14831043 -15.90835123 4.42362603 -13 2 C-8.74556034 -0.48323989 -4.82905843 -0.83692521 0 0 Z " fill="#9D1F29" transform="translate(202,262)"/>
<path d="M0 0 C2 1 4 2 6 3 C6 3.66 6 4.32 6 5 C5.34 5.33 4.68 5.66 4 6 C3.5359375 7.175625 3.5359375 7.175625 3.0625 8.375 C2.00976352 10.97587837 1.177333 12.27627805 -1 14 C-1.66 14 -2.32 14 -3 14 C-3 14.66 -3 15.32 -3 16 C-4.66220581 17.00739746 -6.33020674 18.00522955 -8 19 C-13.05335157 22.69928743 -13.05335157 22.69928743 -16 28 C-18.0625 28.6875 -18.0625 28.6875 -20 29 C-20 29.99 -20 30.98 -20 32 C-20.99 32 -21.98 32 -23 32 C-23.33 33.32 -23.66 34.64 -24 36 C-24.66 36 -25.32 36 -26 36 C-26.0928125 36.804375 -26.0928125 36.804375 -26.1875 37.625 C-27.39515886 41.15507975 -29.41388959 43.35374748 -32 46 C-33.32 46 -34.64 46 -36 46 C-36.268125 46.7425 -36.53625 47.485 -36.8125 48.25 C-37.97059859 50.93191253 -38.97489986 52.89701139 -41 55 C-42.32 55 -43.64 55 -45 55 C-45.33 55.99 -45.66 56.98 -46 58 C-46.66 58 -47.32 58 -48 58 C-48 58.66 -48 59.32 -48 60 C-48.78375 60.45375 -49.5675 60.9075 -50.375 61.375 C-53.1235949 63.07651113 -53.87921032 64.04519084 -55 67 C-55.66 67 -56.32 67 -57 67 C-57.495 68.485 -57.495 68.485 -58 70 C-58.66 70 -59.32 70 -60 70 C-60 71.32 -60 72.64 -60 74 C-62.1875 75.4375 -62.1875 75.4375 -65 77 C-67.47773362 79.35686857 -69.81172146 81.79510865 -72.125 84.3125 C-74 86 -74 86 -77 86 C-77 86.66 -77 87.32 -77 88 C-77.99 88.495 -77.99 88.495 -79 89 C-79.61875 90.155 -80.2375 91.31 -80.875 92.5 C-82.72281678 95.90496575 -82.72281678 95.90496575 -85.1875 96.75 C-85.785625 96.8325 -86.38375 96.915 -87 97 C-87.33 97.99 -87.66 98.98 -88 100 C-90.0625 100.6875 -90.0625 100.6875 -92 101 C-92 101.99 -92 102.98 -92 104 C-92.99 104 -93.98 104 -95 104 C-95.33 105.32 -95.66 106.64 -96 108 C-96.66 108 -97.32 108 -98 108 C-98.20625 108.763125 -98.4125 109.52625 -98.625 110.3125 C-100.43085678 113.84212916 -102.50068268 114.28604866 -106 116 C-107.73490246 118.58443323 -107.73490246 118.58443323 -109 121 C-109.66 121 -110.32 121 -111 121 C-111 119.68 -111 118.36 -111 117 C-110.34 117 -109.68 117 -109 117 C-108.731875 116.360625 -108.46375 115.72125 -108.1875 115.0625 C-107 113 -107 113 -104 112 C-103.29848848 110.6846659 -102.63474075 109.34882408 -102 108 C-100.5 106.25 -100.5 106.25 -99 105 C-98.34 105 -97.68 105 -97 105 C-96.731875 104.360625 -96.46375 103.72125 -96.1875 103.0625 C-95 101 -95 101 -92 100 C-91.30629725 98.6805309 -90.64347841 97.34467757 -90 96 C-88.81611671 94.65354457 -87.57497041 93.35648465 -86.29804993 92.09791565 C-85.52816742 91.33395477 -84.75828491 90.5699939 -83.96507263 89.78288269 C-83.11977493 88.95420181 -82.27447723 88.12552094 -81.40356445 87.27172852 C-80.51409119 86.39160095 -79.62461792 85.51147339 -78.70819092 84.60467529 C-76.77586703 82.69336137 -74.84187969 80.78390523 -72.90514565 78.8770771 C-69.84424685 75.86234184 -66.79314672 72.83782113 -63.74394226 69.81126404 C-55.07306023 61.20722556 -46.39396398 52.61159649 -37.6940918 44.03686523 C-32.88717691 39.29893094 -28.09099477 34.55040678 -23.30656976 29.78976005 C-20.27729659 26.77670644 -17.23532861 23.77728116 -14.1834923 20.78709233 C-11.84634872 18.48940438 -9.52880649 16.17208879 -7.20825195 13.85766602 C-5.93119637 12.61768105 -5.93119637 12.61768105 -4.62834167 11.35264587 C-3.48620712 10.20247482 -3.48620712 10.20247482 -2.32099915 9.02906799 C-1.6516097 8.36780694 -0.98222025 7.70654589 -0.29254627 7.02524662 C1.29044495 5.00939897 1.29044495 5.00939897 0.70756245 2.24818325 C0.47406684 1.50628278 0.24057123 0.76438231 0 0 Z " fill="#36395E" transform="translate(407,205)"/>
<path d="M0 0 C3.95621731 1.38503119 6.90491772 3.21523747 10.1875 5.8125 C11.04730469 6.47894531 11.90710938 7.14539063 12.79296875 7.83203125 C15.19952235 10.19599098 16.26718407 11.71001518 17 15 C16.171875 17.23828125 16.171875 17.23828125 14.75 19.3125 C14.29109375 20.00988281 13.8321875 20.70726563 13.359375 21.42578125 C12.68648438 22.20501953 12.68648438 22.20501953 12 23 C11.34 23 10.68 23 10 23 C9.34 24.32 8.68 25.64 8 27 C4.83043157 27.33305448 3.43132177 27.31903872 0.82421875 25.390625 C0.11910156 24.68421875 -0.58601563 23.9778125 -1.3125 23.25 C-5.31623985 19.46122605 -8.96396749 17.19754146 -14 15 C-14 14.67 -14 14.34 -14 14 C-12.02 13.67 -10.04 13.34 -8 13 C-8 11.02 -8 9.04 -8 7 C-6.54293274 6.49632243 -5.08429904 5.99717444 -3.625 5.5 C-2.81289063 5.2215625 -2.00078125 4.943125 -1.1640625 4.65625 C1 4 1 4 3 4 C2.01 3.34 1.02 2.68 0 2 C0 1.34 0 0.68 0 0 Z " fill="#AE2720" transform="translate(286,105)"/>
<path d="M0 0 C-0.99 0.33 -1.98 0.66 -3 1 C-3.01458252 1.82725586 -3.02916504 2.65451172 -3.04418945 3.50683594 C-3.1186586 7.25502881 -3.2153246 11.00232997 -3.3125 14.75 C-3.34633789 16.70292969 -3.34633789 16.70292969 -3.38085938 18.6953125 C-3.41630859 19.94570312 -3.45175781 21.19609375 -3.48828125 22.484375 C-3.51446533 23.63647461 -3.54064941 24.78857422 -3.56762695 25.97558594 C-4.03804081 29.26609233 -4.60842792 30.7137607 -7 33 C-10.5625 33.375 -10.5625 33.375 -14 33 C-16 31 -16 31 -16.22705078 28.56982422 C-16.21657715 27.5748291 -16.20610352 26.57983398 -16.1953125 25.5546875 C-16.18886719 24.47832031 -16.18242187 23.40195313 -16.17578125 22.29296875 C-16.15902344 21.16503906 -16.14226562 20.03710938 -16.125 18.875 C-16.11597656 17.73933594 -16.10695312 16.60367188 -16.09765625 15.43359375 C-16.07403098 12.62218701 -16.04109013 9.81119702 -16 7 C-15.34 7 -14.68 7 -14 7 C-14 5.35 -14 3.7 -14 2 C-4.58997722 -1.62870159 -4.58997722 -1.62870159 0 0 Z " fill="#9B2730" transform="translate(207,227)"/>
<path d="M0 0 C3.36179774 1.44077046 5.59156268 3.24750021 8 6 C8 6.66 8 7.32 8 8 C8.99 8.33 9.98 8.66 11 9 C12.38576923 10.62332967 13.72641268 12.28724465 15 14 C10.73133091 13.52570343 8.89066852 10.96478822 6 8 C5.01 7.67 4.02 7.34 3 7 C2.85435765 11.37464796 2.76580857 15.7486696 2.6875 20.125 C2.64560547 21.3625 2.60371094 22.6 2.56054688 23.875 C2.24607126 31.39682845 2.24607126 31.39682845 5.51953125 37.8671875 C6.74736328 38.92292969 6.74736328 38.92292969 8 40 C5 40 5 40 1.83984375 38.05078125 C-2.41532943 33.57185941 -1.67591832 27.57371541 -1.57617188 21.79101562 C-1.53015782 20.25650411 -1.48393133 18.72199895 -1.4375 17.1875 C-1.41595938 15.63349814 -1.39705268 14.0794574 -1.38085938 12.52539062 C-1.21259628 1.21259628 -1.21259628 1.21259628 0 0 Z " fill="#666A7F" transform="translate(368,133)"/>
<path d="M0 0 C0.66 0 1.32 0 2 0 C2.33 0.66 2.66 1.32 3 2 C3.99 2.33 4.98 2.66 6 3 C6.33 2.34 6.66 1.68 7 1 C7 9.25 7 17.5 7 26 C6.67 25.34 6.34 24.68 6 24 C5.01 23.67 4.02 23.34 3 23 C2.67 23.66 2.34 24.32 2 25 C1.01 25 0.02 25 -1 25 C-0.67 16.75 -0.34 8.5 0 0 Z " fill="#9D1D26" transform="translate(252,187)"/>
<path d="M0 0 C-1.42999927 3.25763629 -3.17756322 5.43035227 -5.68359375 7.94238281 C-6.81486694 9.08311249 -6.81486694 9.08311249 -7.96899414 10.24688721 C-9.19090454 11.46272491 -9.19090454 11.46272491 -10.4375 12.703125 C-11.27337646 13.54091492 -12.10925293 14.37870483 -12.97045898 15.24188232 C-14.73663557 17.00941903 -16.50533688 18.77443602 -18.27636719 20.53710938 C-20.99646881 23.24648274 -23.70571999 25.96637765 -26.4140625 28.6875 C-28.12956717 30.40168357 -29.84569186 32.1152469 -31.5625 33.828125 C-32.7844104 35.05610809 -32.7844104 35.05610809 -34.03100586 36.30889893 C-35.16227905 37.43071564 -35.16227905 37.43071564 -36.31640625 38.57519531 C-37.31329468 39.56969696 -37.31329468 39.56969696 -38.33032227 40.58428955 C-40 42 -40 42 -42 42 C-42 42.66 -42 43.32 -42 44 C-42.66 44 -43.32 44 -44 44 C-44 43.01 -44 42.02 -44 41 C-42.35 40.34 -40.7 39.68 -39 39 C-39.20625 38.21625 -39.4125 37.4325 -39.625 36.625 C-39.74875 35.75875 -39.8725 34.8925 -40 34 C-37.23776722 31.23776722 -34.79293383 31.42143709 -31 31 C-31 29.68 -31 28.36 -31 27 C-30.01 27 -29.02 27 -28 27 C-28 26.34 -28 25.68 -28 25 C-27.195625 24.7525 -26.39125 24.505 -25.5625 24.25 C-24.716875 23.8375 -23.87125 23.425 -23 23 C-22.34786708 20.97536745 -22.34786708 20.97536745 -22 19 C-21.01 18.67 -20.02 18.34 -19 18 C-18.34 17.01 -17.68 16.02 -17 15 C-16.34 15 -15.68 15 -15 15 C-14.34 13.35 -13.68 11.7 -13 10 C-12.01 10 -11.02 10 -10 10 C-10.495 8.02 -10.495 8.02 -11 6 C-9.54550599 4.9944239 -8.08627557 3.99569565 -6.625 3 C-5.81289062 2.443125 -5.00078125 1.88625 -4.1640625 1.3125 C-2 0 -2 0 0 0 Z " fill="#2B2F5F" transform="translate(143,166)"/>
<path d="M0 0 C1.98 0 3.96 0 6 0 C1.97251947 4.83298806 -2.24379413 9.38110004 -6.7109375 13.80859375 C-7.32393707 14.42017838 -7.93693665 15.031763 -8.56851196 15.66188049 C-10.50164564 17.58947559 -12.43824987 19.51353928 -14.375 21.4375 C-15.69684699 22.75432404 -17.01846372 24.07137926 -18.33984375 25.38867188 C-21.55724299 28.59512373 -24.77775681 31.79841629 -28 35 C-28.495 33.515 -28.495 33.515 -29 32 C-28.360625 31.4225 -27.72125 30.845 -27.0625 30.25 C-25.01776132 28.01937599 -24.41794801 26.92563609 -24 24 C-23.40574219 23.89300781 -22.81148438 23.78601563 -22.19921875 23.67578125 C-19.71450075 22.9122711 -18.62275816 22.02567988 -16.8125 20.1875 C-16.30332031 19.68605469 -15.79414063 19.18460937 -15.26953125 18.66796875 C-13.83381602 16.78165982 -13.53074254 15.28450052 -13 13 C-11.70766393 11.62689293 -10.37562854 10.28965176 -9 9 C-8.67 8.34 -8.34 7.68 -8 7 C-6.66666667 6.33333333 -5.33333333 5.66666667 -4 5 C-3.67 4.34 -3.34 3.68 -3 3 C-2.01 3 -1.02 3 0 3 C0 2.01 0 1.02 0 0 Z " fill="#3B3E72" transform="translate(340,308)"/>
<path d="M0 0 C2.475 0.99 2.475 0.99 5 2 C5 2.99 5 3.98 5 5 C5.66 5 6.32 5 7 5 C7 5.66 7 6.32 7 7 C7.639375 7.268125 8.27875 7.53625 8.9375 7.8125 C11 9 11 9 12 12 C12.66 12 13.32 12 14 12 C14.763125 12.78375 15.52625 13.5675 16.3125 14.375 C18.74268802 17.11402023 18.74268802 17.11402023 21.625 17.9375 C24.99917622 19.44699989 25.53345995 21.7177437 27 25 C27.66 25.33 28.32 25.66 29 26 C29 26.99 29 27.98 29 29 C29.66 29 30.32 29 31 29 C31 29.66 31 30.32 31 31 C31.61875 31.2475 32.2375 31.495 32.875 31.75 C35.37326623 33.21956837 36.06694014 34.28564404 37 37 C36.505 37.99 36.505 37.99 36 39 C34.5 37.625 34.5 37.625 33 36 C33 35.34 33 34.68 33 34 C32.360625 33.731875 31.72125 33.46375 31.0625 33.1875 C29 32 29 32 28 29 C27.34 29 26.68 29 26 29 C26 28.34 26 27.68 26 27 C25.360625 26.731875 24.72125 26.46375 24.0625 26.1875 C22 25 22 25 21 22 C20.34 21.67 19.68 21.34 19 21 C17 20 17 20 16 17 C15.34 17 14.68 17 14 17 C14 16.34 14 15.68 14 15 C13.360625 14.731875 12.72125 14.46375 12.0625 14.1875 C10 13 10 13 9 10 C8.34 9.67 7.68 9.34 7 9 C5 8 5 8 4 5 C3.34 5 2.68 5 2 5 C2 4.34 2 3.68 2 3 C1.01 2.67 0.02 2.34 -1 2 C-0.67 1.34 -0.34 0.68 0 0 Z " fill="#32356A" transform="translate(152,293)"/>
<path d="M0 0 C0.99 0.33 1.98 0.66 3 1 C1.88200014 2.33920838 0.75538103 3.67122556 -0.375 5 C-1.00148437 5.7425 -1.62796875 6.485 -2.2734375 7.25 C-2.84320313 7.8275 -3.41296875 8.405 -4 9 C-4.66 9 -5.32 9 -6 9 C-6 9.66 -6 10.32 -6 11 C-6.66 11 -7.32 11 -8 11 C-8 11.66 -8 12.32 -8 13 C-9.9675587 14.85999285 -12.05555598 16.53390198 -14.15234375 18.24609375 C-16.24798169 19.96005081 -16.24798169 19.96005081 -17 23 C-18.53125 24.2890625 -18.53125 24.2890625 -20.5 25.625 C-25.52880406 29.23262031 -29.72427683 33.54612169 -34 38 C-34.495 36.515 -34.495 36.515 -35 35 C-23.45 23.45 -11.9 11.9 0 0 Z " fill="#242747" transform="translate(103,172)"/>
<path d="M0 0 C1.9551423 1.614367 2.92627851 2.44137612 3.26464844 5.00537109 C3.18778809 6.12806396 3.18778809 6.12806396 3.109375 7.2734375 C3.05910156 8.0984375 3.00882813 8.9234375 2.95703125 9.7734375 C2.88871094 10.63195312 2.82039063 11.49046875 2.75 12.375 C2.69714844 13.22578125 2.64429688 14.0765625 2.58984375 14.953125 C2.3160616 19.04075612 1.95378009 23.00399031 1 27 C1.66 27 2.32 27 3 27 C3.495 28.98 3.495 28.98 4 31 C2.1875 32.5625 2.1875 32.5625 0 34 C-0.99 33.67 -1.98 33.34 -3 33 C-5.51054905 32.8470353 -7.99888525 32.74304822 -10.51171875 32.68359375 C-11.60405571 32.6524221 -11.60405571 32.6524221 -12.71846008 32.62062073 C-15.04137875 32.55531254 -17.36440906 32.49632763 -19.6875 32.4375 C-21.26368335 32.39429695 -22.83985548 32.35068208 -24.41601562 32.30664062 C-28.27722975 32.1996504 -32.13855603 32.09833039 -36 32 C-36 31.67 -36 31.34 -36 31 C-24.12 31 -12.24 31 0 31 C-0.495 23.575 -0.495 23.575 -1 16 C-0.92727202 13.01815292 -0.79931295 10.03581818 -0.5625 7.0625 C-0.51029297 6.36705078 -0.45808594 5.67160156 -0.40429688 4.95507812 C-0.27893986 3.30264471 -0.14103286 1.65116938 0 0 Z " fill="#9B2C32" transform="translate(250,185)"/>
<path d="M0 0 C0.90154816 0.00141495 1.80309631 0.0028299 2.73196411 0.00428772 C5.5947815 0.00985885 8.45751898 0.02240599 11.3203125 0.03515625 C13.26822803 0.04017498 15.2161448 0.04473724 17.1640625 0.04882812 C21.92450968 0.05981883 26.68489757 0.07706348 31.4453125 0.09765625 C31.4453125 0.42765625 31.4453125 0.75765625 31.4453125 1.09765625 C29.90375488 1.11953003 29.90375488 1.11953003 28.33105469 1.1418457 C24.46158711 1.20049737 20.59266157 1.27771562 16.72363281 1.36010742 C15.05966083 1.39304623 13.39558544 1.42117112 11.73144531 1.4440918 C-4.63160927 1.3285433 -4.63160927 1.3285433 -19.5546875 7.09765625 C-20.619689 9.06381286 -21.62301924 11.06492551 -22.5546875 13.09765625 C-22.8846875 13.75765625 -23.2146875 14.41765625 -23.5546875 15.09765625 C-24.2146875 14.76765625 -24.8746875 14.43765625 -25.5546875 14.09765625 C-25.5546875 15.74765625 -25.5546875 17.39765625 -25.5546875 19.09765625 C-26.2146875 19.09765625 -26.8746875 19.09765625 -27.5546875 19.09765625 C-27.22568376 12.7369172 -26.274823 9.71289985 -21.5546875 5.09765625 C-14.77771977 -0.23740345 -8.25156242 -0.04918671 0 0 Z " fill="#BC7C7E" transform="translate(218.5546875,214.90234375)"/>
<path d="M0 0 C5.71084339 -0.049623 11.42155985 -0.08582503 17.13256836 -0.10986328 C19.07334582 -0.1198898 21.0141083 -0.13351443 22.95483398 -0.15087891 C25.75247916 -0.17527489 28.54992371 -0.18651681 31.34765625 -0.1953125 C32.2083522 -0.20563507 33.06904816 -0.21595764 33.95582581 -0.22659302 C39.02677579 -0.22752683 43.22436382 0.24130648 48 2 C48.66 2.66 49.32 3.32 50 4 C49.34 4.33 48.68 4.66 48 5 C46.66536176 4.33594956 45.33221503 3.6688986 44 3 C41.82296271 2.6776529 41.82296271 2.6776529 39.50683594 2.68115234 C38.62622498 2.66128265 37.74561401 2.64141296 36.83831787 2.62094116 C35.89651672 2.60938995 34.95471558 2.59783875 33.984375 2.5859375 C33.01340881 2.56657135 32.04244263 2.5472052 31.04205322 2.5272522 C27.94479114 2.46753491 24.84749174 2.4211022 21.75 2.375 C19.64842141 2.33681302 17.54685835 2.29776086 15.4453125 2.2578125 C10.29700132 2.16183969 5.14861688 2.0777794 0 2 C0 1.34 0 0.68 0 0 Z " fill="#B16168" transform="translate(260,215)"/>
<path d="M0 0 C0.66 0 1.32 0 2 0 C2 11.22 2 22.44 2 34 C0.68 34 -0.64 34 -2 34 C-1.835 32.948125 -1.67 31.89625 -1.5 30.8125 C-0.0492267 19.74945018 -0.0492267 19.74945018 -2 9 C-2.99 8.67 -3.98 8.34 -5 8 C-4.67 7.34 -4.34 6.68 -4 6 C-3.01 6 -2.02 6 -1 6 C-0.67 4.02 -0.34 2.04 0 0 Z " fill="#585C98" transform="translate(142,133)"/>
<path d="M0 0 C-0.99 0.66 -1.98 1.32 -3 2 C-3 1.34 -3 0.68 -3 0 C-5.31 -0.33 -7.62 -0.66 -10 -1 C-10 -1.66 -10 -2.32 -10 -3 C-12.89608593 -3.05413245 -15.79115195 -3.09373641 -18.6875 -3.125 C-19.50412109 -3.14175781 -20.32074219 -3.15851563 -21.16210938 -3.17578125 C-25.51604459 -3.21103579 -29.10031952 -3.19981976 -33 -1 C-33.33 -0.34 -33.66 0.32 -34 1 C-36.28515625 1.6328125 -36.28515625 1.6328125 -39.0625 2.125 C-39.98160156 2.29257813 -40.90070313 2.46015625 -41.84765625 2.6328125 C-42.91306641 2.81457031 -42.91306641 2.81457031 -44 3 C-30.88399638 -7.86754586 -14.54115559 -9.28158868 0 0 Z " fill="#AB423C" transform="translate(276,132)"/>
<path d="M0 0 C0.84064499 0.00007553 1.68128998 0.00015106 2.54740906 0.00022888 C3.45062393 0.00539017 4.35383881 0.01055145 5.28442383 0.01586914 C6.21241287 0.01728409 7.14040192 0.01869904 8.09651184 0.02015686 C11.06152566 0.02575602 14.02646407 0.03830835 16.99145508 0.05102539 C19.00121961 0.0560405 21.01098533 0.06060339 23.02075195 0.06469727 C27.9485154 0.07572518 32.87622245 0.09298922 37.80395508 0.11352539 C37.80395508 0.77352539 37.80395508 1.43352539 37.80395508 2.11352539 C36.54736084 2.13334473 35.2907666 2.15316406 33.99609375 2.17358398 C29.33866161 2.24959536 24.68154373 2.33831962 20.02441406 2.4309082 C18.00787556 2.46921643 15.9912683 2.50406604 13.97460938 2.53540039 C11.07763066 2.58101088 8.18112612 2.63901178 5.28442383 2.69946289 C4.38120895 2.7110141 3.47799408 2.72256531 2.54740906 2.73446655 C1.28644157 2.76427109 1.28644157 2.76427109 0 2.79467773 C-1.10919548 2.81466324 -1.10919548 2.81466324 -2.24079895 2.83505249 C-4.51708657 3.01566951 -4.51708657 3.01566951 -7.19604492 5.11352539 C-7.19604492 3.79352539 -7.19604492 2.47352539 -7.19604492 1.11352539 C-4.4401914 0.19490755 -2.83643802 -0.00851783 0 0 Z " fill="#C68288" transform="translate(211.196044921875,226.886474609375)"/>
<path d="M0 0 C0.66 0.66 1.32 1.32 2 2 C2.99 2.33 3.98 2.66 5 3 C-1.6 9.6 -8.2 16.2 -15 23 C-16.04449911 19.86650268 -15.93423645 19.01031744 -15 16 C-14.01 16 -13.02 16 -12 16 C-11.71125 15.21625 -11.4225 14.4325 -11.125 13.625 C-10 11 -10 11 -8 9 C-6.66666667 8.66666667 -5.33333333 8.33333333 -4 8 C-1.53721199 5.53721199 -1.00228745 3.29323018 0 0 Z " fill="#393E77" transform="translate(379,268)"/>
<path d="M0 0 C0.99 0.33 1.98 0.66 3 1 C3 1.66 3 2.32 3 3 C3.66 3 4.32 3 5 3 C5 3.66 5 4.32 5 5 C5.66 5 6.32 5 7 5 C7 5.66 7 6.32 7 7 C7.639375 7.268125 8.27875 7.53625 8.9375 7.8125 C11 9 11 9 12 12 C12.66 12 13.32 12 14 12 C14.33 12.66 14.66 13.32 15 14 C15.969375 14.226875 16.93875 14.45375 17.9375 14.6875 C19.4534375 15.3371875 19.4534375 15.3371875 21 16 C22.375 19.625 22.375 19.625 23 23 C22.34 23.33 21.68 23.66 21 24 C21 23.34 21 22.68 21 22 C20.360625 21.731875 19.72125 21.46375 19.0625 21.1875 C17 20 17 20 16 17 C15.34 17 14.68 17 14 17 C14 16.34 14 15.68 14 15 C13.01 14.67 12.02 14.34 11 14 C11 13.34 11 12.68 11 12 C10.34 12 9.68 12 9 12 C9 11.34 9 10.68 9 10 C8.360625 9.731875 7.72125 9.46375 7.0625 9.1875 C5 8 5 8 4 5 C3.34 5 2.68 5 2 5 C2 4.34 2 3.68 2 3 C1.01 2.67 0.02 2.34 -1 2 C-0.67 1.34 -0.34 0.68 0 0 Z " fill="#4C4E76" transform="translate(128,269)"/>
<path d="M0 0 C0.33 0.66 0.66 1.32 1 2 C0.608125 2.721875 0.21625 3.44375 -0.1875 4.1875 C-1.11243277 7.38919037 -0.90752261 7.90912297 0.5625 10.75 C2.22750608 13.36968534 2.70289895 13.89871555 5.75 14.9375 C6.86375 14.9684375 6.86375 14.9684375 8 15 C8 13.02 8 11.04 8 9 C8.639375 9.185625 9.27875 9.37125 9.9375 9.5625 C10.9584375 9.7790625 10.9584375 9.7790625 12 10 C12.33 9.67 12.66 9.34 13 9 C14.66617115 8.95936168 16.33388095 8.957279 18 9 C17.46375 9.391875 16.9275 9.78375 16.375 10.1875 C13.84233047 12.05789753 13.84233047 12.05789753 11.125 14.6875 C7.54255953 17.33850594 6.33395604 17.62706406 2 17 C-0.15234375 14.953125 -0.15234375 14.953125 -1.9375 12.25 C-2.54464844 11.36828125 -3.15179688 10.4865625 -3.77734375 9.578125 C-5 7 -5 7 -4.75390625 4.796875 C-4.21452805 3.51131039 -3.62347497 2.24694995 -3 1 C-2.01 0.67 -1.02 0.34 0 0 Z " fill="#AA403B" transform="translate(231,137)"/>
<path d="M0 0 C4.66251557 0.46806577 6.63571186 2.16179474 9.86328125 5.47265625 C10.74951172 6.37177734 11.63574219 7.27089844 12.54882812 8.19726562 C13.46083984 9.14279297 14.37285156 10.08832031 15.3125 11.0625 C16.25232276 12.02239821 17.19306889 12.98139329 18.13476562 13.93945312 C20.43242024 16.28423912 22.7202276 18.63784527 25 21 C24.67 21.99 24.34 22.98 24 24 C20.24623848 22.74874616 19.75926711 21.4347596 18 18 C18 17.34 18 16.68 18 16 C16.68 15.67 15.36 15.34 14 15 C13.67 13.68 13.34 12.36 13 11 C12.071875 10.7834375 12.071875 10.7834375 11.125 10.5625 C9 10 9 10 7 9 C6.731875 8.4225 6.46375 7.845 6.1875 7.25 C4.61890427 4.27792388 2.42512233 2.29748431 0 0 Z " fill="#3D4075" transform="translate(118,229)"/>
<path d="M0 0 C6.66287016 1.92482916 6.66287016 1.92482916 9 5 C9.33 5.99 9.66 6.98 10 8 C10.66 8.33 11.32 8.66 12 9 C12 9.99 12 10.98 12 12 C12.66 12 13.32 12 14 12 C14 12.66 14 13.32 14 14 C14.61875 14.20625 15.2375 14.4125 15.875 14.625 C18.84653645 16.54775888 19.13024659 18.66594527 20 22 C18 20.625 18 20.625 16 19 C16 18.34 16 17.68 16 17 C15.360625 16.731875 14.72125 16.46375 14.0625 16.1875 C12 15 12 15 11 12 C10.34 12 9.68 12 9 12 C9 11.34 9 10.68 9 10 C8.360625 9.731875 7.72125 9.46375 7.0625 9.1875 C5 8 5 8 4 5 C3.01 4.67 2.02 4.34 1 4 C0.3125 1.9375 0.3125 1.9375 0 0 Z " fill="#32356B" transform="translate(193,334)"/>
<path d="M0 0 C3.94616426 1.32223907 6.18712412 2.89210817 9 5.9375 C11.8214125 8.8925021 14.42305336 10.98796751 18 13 C18 13.66 18 14.32 18 15 C18.61875 15.226875 19.2375 15.45375 19.875 15.6875 C22.61410209 17.37929835 23.05024472 18.99244161 24 22 C21 22 21 22 18.73168945 20.08813477 C17.86761475 19.21471436 17.00354004 18.34129395 16.11328125 17.44140625 C15.65140915 16.97766098 15.18953705 16.51391571 14.71366882 16.03611755 C13.73942599 15.05515403 12.76878696 14.07060015 11.80151367 13.08276367 C10.31485371 11.56490311 8.81774258 10.05801776 7.31835938 8.55273438 C0 1.16329961 0 1.16329961 0 0 Z " fill="#323771" transform="translate(376,175)"/>
<path d="M0 0 C0 3 0 3 -1.3125 4.6875 C-3 6 -3 6 -6 6 C-6.33 7.32 -6.66 8.64 -7 10 C-7.66 9.67 -8.32 9.34 -9 9 C-9 10.98 -9 12.96 -9 15 C-8.38125 15.0825 -7.7625 15.165 -7.125 15.25 C-5 16 -5 16 -3.75 17.875 C-3 20 -3 20 -3 23 C-1.68 23.33 -0.36 23.66 1 24 C-0.32 24.33 -1.64 24.66 -3 25 C-4.17260611 23.71372289 -5.3379283 22.42080217 -6.5 21.125 C-7.1496875 20.40570313 -7.799375 19.68640625 -8.46875 18.9453125 C-10 17 -10 17 -10 15 C-10.66 15 -11.32 15 -12 15 C-12.3125 12.8125 -12.3125 12.8125 -12 10 C-8.59177162 5.86881408 -4.38282353 3.00782007 0 0 Z " fill="#AD4B46" transform="translate(202,84)"/>
<path d="M0 0 C-5.28 5.28 -10.56 10.56 -16 16 C-16.33 15.01 -16.66 14.02 -17 13 C-16.566875 12.62875 -16.13375 12.2575 -15.6875 11.875 C-12.36063659 8.1784851 -11 4.95627076 -11 0 C-3.375 -1.125 -3.375 -1.125 0 0 Z " fill="#484B7D" transform="translate(421,234)"/>
<path d="M0 0 C4.30960905 2.30884276 7.56334849 5.30080188 10.95703125 8.76171875 C11.50485764 9.31237503 12.05268402 9.86303131 12.61711121 10.43037415 C14.35368793 12.17808307 16.08315297 13.93263999 17.8125 15.6875 C18.99367666 16.87871544 20.1753126 18.06947566 21.35742188 19.25976562 C24.24362357 22.16793528 27.12347065 25.08226417 30 28 C29.67 28.99 29.34 29.98 29 31 C28.54109375 30.45730469 28.0821875 29.91460937 27.609375 29.35546875 C26.99578125 28.64003906 26.3821875 27.92460937 25.75 27.1875 C25.14671875 26.47980469 24.5434375 25.77210938 23.921875 25.04296875 C22.06082782 22.94002444 22.06082782 22.94002444 19.765625 21.36328125 C18.89164062 20.68845703 18.89164062 20.68845703 18 20 C18 19.34 18 18.68 18 18 C17.34 18 16.68 18 16 18 C13.875 16.125 13.875 16.125 12 14 C12 13.34 12 12.68 12 12 C11.34 12 10.68 12 10 12 C8.37890625 10.3203125 8.37890625 10.3203125 6.5625 8.125 C4.41599116 5.53806278 2.83223438 3.88815626 0 2 C0 1.34 0 0.68 0 0 Z " fill="#2F3262" transform="translate(405,171)"/>
<path d="M0 0 C0.33 0.99 0.66 1.98 1 3 C1.66 3 2.32 3 3 3 C1.55746343 6.36591866 -0.33264727 8.51047079 -3 11 C-3.99 10.67 -4.98 10.34 -6 10 C-6.66 10.66 -7.32 11.32 -8 12 C-7.34 12.33 -6.68 12.66 -6 13 C-7.97746603 13.73080266 -9.98072489 14.39421747 -12 15 C-12.66 14.67 -13.32 14.34 -14 14 C-12.625 12.5 -12.625 12.5 -11 11 C-10.34 11 -9.68 11 -9 11 C-8.731875 10.360625 -8.46375 9.72125 -8.1875 9.0625 C-7 7 -7 7 -4 6 C-2.90833725 4.06669397 -2.90833725 4.06669397 -2 2 C-1.34 1.34 -0.68 0.68 0 0 Z " fill="#42467A" transform="translate(295,323)"/>
<path d="M0 0 C11.44730089 2.21560662 20.34672493 6.46660471 30 13 C29.01 13.66 28.02 14.32 27 15 C26.67 14.34 26.34 13.68 26 13 C24.34302621 12.30959426 22.6744239 11.6469365 21 11 C20.21625 10.525625 19.4325 10.05125 18.625 9.5625 C14.5389817 7.13034625 10.29006252 5.39694231 5.75 4 C2.97475508 2.99082003 1.95063317 2.11127355 0 0 Z " fill="#B85756" transform="translate(279,71)"/>
<path d="M0 0 C2 1 4 2 6 3 C6 3.66 6 4.32 6 5 C5.01 5.495 5.01 5.495 4 6 C3.690625 6.78375 3.38125 7.5675 3.0625 8.375 C2.00976352 10.97587837 1.177333 12.27627805 -1 14 C-1.66 14 -2.32 14 -3 14 C-3 14.66 -3 15.32 -3 16 C-3.99 15.67 -4.98 15.34 -6 15 C-6 12 -6 12 -4.43359375 10.3515625 C-3.77488281 9.78179687 -3.11617188 9.21203125 -2.4375 8.625 C-0.49665854 6.8610936 -0.49665854 6.8610936 1 5 C1.13210475 2.13079138 1.13210475 2.13079138 0 0 Z " fill="#363A67" transform="translate(407,205)"/>
<path d="M0 0 C0.33 0.66 0.66 1.32 1 2 C0.67 2.99 0.34 3.98 0 5 C-0.66 5 -1.32 5 -2 5 C-2 5.66 -2 6.32 -2 7 C-2.99 7.495 -2.99 7.495 -4 8 C-4.33 8.99 -4.66 9.98 -5 11 C-6.3243115 11.68441309 -7.65892758 12.34904149 -9 13 C-10.73442288 14.70377665 -10.73442288 14.70377665 -12.25 16.625 C-13.03117187 17.57246094 -13.03117187 17.57246094 -13.828125 18.5390625 C-14.21484375 19.02117187 -14.6015625 19.50328125 -15 20 C-16.32 19.67 -17.64 19.34 -19 19 C-12.73 12.73 -6.46 6.46 0 0 Z " fill="#323562" transform="translate(123,152)"/>
<path d="M0 0 C-0.66 1.65 -1.32 3.3 -2 5 C-2.99 5 -3.98 5 -5 5 C-5.226875 5.94875 -5.45375 6.8975 -5.6875 7.875 C-7 11 -7 11 -9.625 12.375 C-10.40875 12.58125 -11.1925 12.7875 -12 13 C-12 13.66 -12 14.32 -12 15 C-12.66 15 -13.32 15 -14 15 C-14.33 15.99 -14.66 16.98 -15 18 C-16.32 17.67 -17.64 17.34 -19 17 C-16.21641519 14.15862758 -13.42184273 11.32831845 -10.625 8.5 C-9.43390625 7.28376953 -9.43390625 7.28376953 -8.21875 6.04296875 C-7.45820313 5.27597656 -6.69765625 4.50898438 -5.9140625 3.71875 C-5.2123291 3.00654297 -4.5105957 2.29433594 -3.78759766 1.56054688 C-2 0 -2 0 0 0 Z " fill="#2F3465" transform="translate(143,134)"/>
<path d="M0 0 C0.99 0.33 1.98 0.66 3 1 C-2.28 6.28 -7.56 11.56 -13 17 C-13.33 16.01 -13.66 15.02 -14 14 C-12.6875 11.5 -12.6875 11.5 -11 9 C-10.34 8.01 -9.68 7.02 -9 6 C-7.824375 5.5359375 -7.824375 5.5359375 -6.625 5.0625 C-3.66086723 3.86273197 -2.12004178 2.35560198 0 0 Z " fill="#464B75" transform="translate(360,291)"/>
<path d="M0 0 C2.475 0.99 2.475 0.99 5 2 C5 2.99 5 3.98 5 5 C5.66 5 6.32 5 7 5 C7 5.66 7 6.32 7 7 C7.639375 7.268125 8.27875 7.53625 8.9375 7.8125 C11 9 11 9 12 12 C12.66 12 13.32 12 14 12 C16.1875 14.3125 16.1875 14.3125 18 17 C17.67 17.99 17.34 18.98 17 20 C16.67 19.01 16.34 18.02 16 17 C15.34 17 14.68 17 14 17 C14 16.34 14 15.68 14 15 C13.360625 14.731875 12.72125 14.46375 12.0625 14.1875 C10 13 10 13 9 10 C8.34 9.67 7.68 9.34 7 9 C5 8 5 8 4 5 C3.34 5 2.68 5 2 5 C2 4.34 2 3.68 2 3 C1.01 2.67 0.02 2.34 -1 2 C-0.67 1.34 -0.34 0.68 0 0 Z " fill="#5E607F" transform="translate(152,293)"/>
<path d="M0 0 C0.66 0.33 1.32 0.66 2 1 C2 4 2 4 -0.625 6.91796875 C-1.74249406 8.01550756 -2.86785643 9.10507895 -4 10.1875 C-4.57234375 10.74630859 -5.1446875 11.30511719 -5.734375 11.88085938 C-7.14962788 13.26073093 -8.57397155 14.63126734 -10 16 C-10.33 15.01 -10.66 14.02 -11 13 C-10.2884375 12.38125 -10.2884375 12.38125 -9.5625 11.75 C-7.83733482 9.817815 -7.43415125 8.51807725 -7 6 C-6.01 6 -5.02 6 -4 6 C-3.8453125 5.071875 -3.8453125 5.071875 -3.6875 4.125 C-3 2 -3 2 0 0 Z " fill="#4A4D7D" transform="translate(432,217)"/>
<path d="M0 0 C0.99 0.33 1.98 0.66 3 1 C3.6875 3.0625 3.6875 3.0625 4 5 C8.61507774 6.04214691 8.61507774 6.04214691 13 5 C15.3400417 5.28241883 17.67504723 5.61250787 20 6 C18.31118565 8.068385 17.38404974 8.92067819 14.73046875 9.46875 C10.32710018 9.52286206 7.0000855 9.55164491 3.4375 6.75 C0.23212435 3.13367876 0.23212435 3.13367876 0 0 Z " fill="#B15B62" transform="translate(185,279)"/>
<path d="M0 0 C0.66 0.66 1.32 1.32 2 2 C-3.28 7.28 -8.56 12.56 -14 18 C-14.33 17.01 -14.66 16.02 -15 15 C-14.360625 14.4225 -13.72125 13.845 -13.0625 13.25 C-11.01776132 11.01937599 -10.41794801 9.92563609 -10 7 C-9.11054688 6.84724609 -9.11054688 6.84724609 -8.203125 6.69140625 C-5.63815889 5.88644348 -4.57256517 4.88433098 -2.75 2.9375 C-2.22921875 2.38964844 -1.7084375 1.84179688 -1.171875 1.27734375 C-0.78515625 0.85582031 -0.3984375 0.43429687 0 0 Z " fill="#454A73" transform="translate(326,325)"/>
<path d="M0 0 C-1.32 0.33 -2.64 0.66 -4 1 C-4 1.66 -4 2.32 -4 3 C-7.75 4.125 -7.75 4.125 -10 3 C-10 3.66 -10 4.32 -10 5 C-11.6396875 5.2165625 -11.6396875 5.2165625 -13.3125 5.4375 C-16.93122987 5.88288104 -16.93122987 5.88288104 -20 7 C-20.33 7.99 -20.66 8.98 -21 10 C-22.32 9.34 -23.64 8.68 -25 8 C-6.10139165 -2.03379722 -6.10139165 -2.03379722 0 0 Z " fill="#A5322A" transform="translate(233,72)"/>
<path d="M0 0 C4.69350812 1.24239921 6.77517676 3.77007922 9.66796875 7.44140625 C10.93649295 9.13049223 10.93649295 9.13049223 13 10 C13 11.65 13 13.3 13 15 C11 13.625 11 13.625 9 12 C9 11.34 9 10.68 9 10 C8.34 10 7.68 10 7 10 C7 9.34 7 8.68 7 8 C6.01 7.67 5.02 7.34 4 7 C4 6.34 4 5.68 4 5 C3.34 5 2.68 5 2 5 C2 4.34 2 3.68 2 3 C1.01 2.67 0.02 2.34 -1 2 C-0.67 1.34 -0.34 0.68 0 0 Z " fill="#555779" transform="translate(224,365)"/>
<path d="M0 0 C0.66 0.33 1.32 0.66 2 1 C-0.02446327 5.79478142 -1.62023887 7.40269979 -6 10 C-7.64760066 11.51663081 -9.25248462 13.08091699 -10.8125 14.6875 C-11.99779297 15.89986328 -11.99779297 15.89986328 -13.20703125 17.13671875 C-14.09455078 18.05904297 -14.09455078 18.05904297 -15 19 C-15.66 18.34 -16.32 17.68 -17 17 C-15.71034824 15.62437146 -14.37310707 14.29233607 -13 13 C-12.34 13 -11.68 13 -11 13 C-10.67 12.01 -10.34 11.02 -10 10 C-9.34 10 -8.68 10 -8 10 C-8 9.34 -8 8.68 -8 8 C-7.34 8 -6.68 8 -6 8 C-6 7.34 -6 6.68 -6 6 C-4.37550757 4.29220027 -2.70779973 2.62449243 -1 1 C-0.67 0.67 -0.34 0.34 0 0 Z " fill="#2D2F79" transform="translate(103,175)"/>
<path d="M0 0 C4.82034262 0.41317222 6.90992611 2.38019915 10 6 C10 6.66 10 7.32 10 8 C10.61875 8.20625 11.2375 8.4125 11.875 8.625 C14.84653645 10.54775888 15.13024659 12.66594527 16 16 C15.34 15.67 14.68 15.34 14 15 C14 14.34 14 13.68 14 13 C13.34 13 12.68 13 12 13 C12 12.34 12 11.68 12 11 C11.360625 10.731875 10.72125 10.46375 10.0625 10.1875 C8 9 8 9 7 6 C6.01 6 5.02 6 4 6 C3.71125 5.195625 3.4225 4.39125 3.125 3.5625 C2.26737432 0.8673532 2.26737432 0.8673532 0 0 Z " fill="#71738C" transform="translate(89,232)"/>
<path d="M0 0 C1.32 0.66 2.64 1.32 4 2 C3.67 2.66 3.34 3.32 3 4 C3.27942455 5.67654729 3.60828247 7.34608154 4 9 C3.34 9 2.68 9 2 9 C1.67 9.66 1.34 10.32 1 11 C0.67 10.01 0.34 9.02 0 8 C-0.66 7.690625 -1.32 7.38125 -2 7.0625 C-4 6 -4 6 -4.75 3.875 C-4.8325 3.25625 -4.915 2.6375 -5 2 C-4.01 2 -3.02 2 -2 2 C-1.34 1.34 -0.68 0.68 0 0 Z " fill="#4A4D80" transform="translate(72,206)"/>
<path d="M0 0 C0.33 0.66 0.66 1.32 1 2 C1.66 2 2.32 2 3 2 C3.63175608 7.18039987 2.25817319 9.66878358 -0.7109375 13.6796875 C-1.34902344 14.33324219 -1.34902344 14.33324219 -2 15 C-2.66 15 -3.32 15 -4 15 C-4 15.66 -4 16.32 -4 17 C-5.98 17 -7.96 17 -10 17 C-10 16.67 -10 16.34 -10 16 C-8.35 16 -6.7 16 -5 16 C-4.896875 15.360625 -4.79375 14.72125 -4.6875 14.0625 C-4.460625 13.381875 -4.23375 12.70125 -4 12 C-3.01 11.67 -2.02 11.34 -1 11 C-1.33 9.68 -1.66 8.36 -2 7 C-1.01 6.67 -0.02 6.34 1 6 C0.67 4.02 0.34 2.04 0 0 Z " fill="#B04D4C" transform="translate(281,137)"/>
<path d="M0 0 C4.03048418 2.49506163 5.34587387 6.15576413 6.625 10.625 C6.375 13.6875 6.375 13.6875 5.625 15.625 C5.295 15.625 4.965 15.625 4.625 15.625 C3.965 12.325 3.305 9.025 2.625 5.625 C0.975 5.625 -0.675 5.625 -2.375 5.625 C-2.045 4.305 -1.715 2.985 -1.375 1.625 C-2.365 1.295 -3.355 0.965 -4.375 0.625 C-2.375 -0.375 -2.375 -0.375 0 0 Z " fill="#A74D55" transform="translate(262.375,263.375)"/>
<path d="M0 0 C1.32 0 2.64 0 4 0 C4 0.99 4 1.98 4 3 C4.9590625 3.1546875 4.9590625 3.1546875 5.9375 3.3125 C6.618125 3.539375 7.29875 3.76625 8 4 C8.33 4.99 8.66 5.98 9 7 C10.91666667 8.16666667 10.91666667 8.16666667 13 9 C13.66 9.33 14.32 9.66 15 10 C15 11.32 15 12.64 15 14 C10.86360664 12.40907948 7.76786752 9.39525082 5 6 C5 5.34 5 4.68 5 4 C4.34 4 3.68 4 3 4 C3 3.34 3 2.68 3 2 C2.01 1.67 1.02 1.34 0 1 C0 0.67 0 0.34 0 0 Z " fill="#71748B" transform="translate(74,217)"/>
<path d="M0 0 C0.99 0.33 1.98 0.66 3 1 C3 1.66 3 2.32 3 3 C3.66 3 4.32 3 5 3 C5 3.66 5 4.32 5 5 C5.66 5 6.32 5 7 5 C7 5.66 7 6.32 7 7 C7.61875 7.20625 8.2375 7.4125 8.875 7.625 C11.84653645 9.54775888 12.13024659 11.66594527 13 15 C12.34 14.67 11.68 14.34 11 14 C11 13.34 11 12.68 11 12 C10.34 12 9.68 12 9 12 C9 11.34 9 10.68 9 10 C8.360625 9.731875 7.72125 9.46375 7.0625 9.1875 C5 8 5 8 4 5 C3.34 5 2.68 5 2 5 C2 4.34 2 3.68 2 3 C1.01 2.67 0.02 2.34 -1 2 C-0.67 1.34 -0.34 0.68 0 0 Z " fill="#606280" transform="translate(128,269)"/>
<path d="M0 0 C0.99 0.33 1.98 0.66 3 1 C2.67 1.66 2.34 2.32 2 3 C4.64 3 7.28 3 10 3 C8.10836343 4.97388164 6.59887274 5.92417941 3.87109375 6.26953125 C-0.37362475 6.34645366 -3.25333077 6.1373045 -7 4 C-7 3.34 -7 2.68 -7 2 C-4.03 2.495 -4.03 2.495 -1 3 C-0.67 2.01 -0.34 1.02 0 0 Z " fill="#AA4E57" transform="translate(254,282)"/>
<path d="M0 0 C0.66 0.66 1.32 1.32 2 2 C1.2884375 2.556875 1.2884375 2.556875 0.5625 3.125 C-1.52205802 5.62646962 -1.64621491 7.81593418 -2 11 C-3.32 10.67 -4.64 10.34 -6 10 C-6 8.02 -6 6.04 -6 4 C-5.34 4 -4.68 4 -4 4 C-3.67 3.01 -3.34 2.02 -3 1 C-2.01 0.67 -1.02 0.34 0 0 Z " fill="#AB1C11" transform="translate(199,89)"/>
<path d="M0 0 C0.33 0.99 0.66 1.98 1 3 C-0.07421875 4.82421875 -0.07421875 4.82421875 -1.6875 6.6875 C-2.20699219 7.31011719 -2.72648437 7.93273437 -3.26171875 8.57421875 C-5 10 -5 10 -9 10 C-8.64950425 6.75791433 -8.43778819 5.38472296 -5.9375 3.1875 C-5.298125 2.795625 -4.65875 2.40375 -4 2 C-4 2.99 -4 3.98 -4 5 C-2.68 3.35 -1.36 1.7 0 0 Z " fill="#313469" transform="translate(380,241)"/>
<path d="M0 0 C4.91935902 4.11619836 9.52647956 8.40410362 14 13 C13.34 13.66 12.68 14.32 12 15 C10.17799867 13.25904321 8.36770425 11.50822868 6.5625 9.75 C6.04623047 9.25886719 5.52996094 8.76773437 4.99804688 8.26171875 C0.34341896 3.69835805 0.34341896 3.69835805 0 0 Z " fill="#3C3E6D" transform="translate(238,346)"/>
<path d="M0 0 C4.54074179 1.42358391 7.03973147 3.72132073 10.3125 7.125 C11.19550781 8.03507813 12.07851563 8.94515625 12.98828125 9.8828125 C13.65214844 10.58148438 14.31601562 11.28015625 15 12 C14.34 12.66 13.68 13.32 13 14 C10.83031809 11.85714108 8.66416525 9.71091768 6.5 7.5625 C5.87996094 6.95083984 5.25992187 6.33917969 4.62109375 5.70898438 C4.03457031 5.12568359 3.44804687 4.54238281 2.84375 3.94140625 C2.02680664 3.13231812 2.02680664 3.13231812 1.19335938 2.30688477 C0 1 0 1 0 0 Z " fill="#3E4264" transform="translate(376,175)"/>
<path d="M0 0 C0.9590625 0.2784375 0.9590625 0.2784375 1.9375 0.5625 C2.9584375 0.7790625 2.9584375 0.7790625 4 1 C4.33 0.67 4.66 0.34 5 0 C6.66617115 -0.04063832 8.33388095 -0.042721 10 0 C9.46375 0.391875 8.9275 0.78375 8.375 1.1875 C6.10193208 2.85633269 6.10193208 2.85633269 4.57421875 4.34765625 C3.0625 5.75 3.0625 5.75 0 8 C-2.875 7.8125 -2.875 7.8125 -5 7 C-5 6.67 -5 6.34 -5 6 C-3.35 6 -1.7 6 0 6 C0 4.02 0 2.04 0 0 Z " fill="#A32B27" transform="translate(239,146)"/>
<path d="M0 0 C1.21236328 0.01353516 1.21236328 0.01353516 2.44921875 0.02734375 C3.37154297 0.04474609 3.37154297 0.04474609 4.3125 0.0625 C2.6625 2.0425 1.0125 4.0225 -0.6875 6.0625 C-3.1625 5.0725 -3.1625 5.0725 -5.6875 4.0625 C-5.6875 3.4025 -5.6875 2.7425 -5.6875 2.0625 C-6.3475 1.7325 -7.0075 1.4025 -7.6875 1.0625 C-4.80538698 0.10179566 -2.98899956 -0.04331883 0 0 Z " fill="#585D7C" transform="translate(257.6875,391.9375)"/>
<path d="M0 0 C0.66 0 1.32 0 2 0 C2.2475 0.78375 2.495 1.5675 2.75 2.375 C3.71951553 5.12670842 3.71951553 5.12670842 6 5.9375 C8 7 8 7 9.25 10.125 C9.4975 11.07375 9.745 12.0225 10 13 C9.34 12.67 8.68 12.34 8 12 C8 11.34 8 10.68 8 10 C7.34 10 6.68 10 6 10 C6 9.34 6 8.68 6 8 C5.360625 7.731875 4.72125 7.46375 4.0625 7.1875 C2 6 2 6 1 3 C0.01 2.67 -0.98 2.34 -2 2 C-1.34 1.34 -0.68 0.68 0 0 Z " fill="#616381" transform="translate(107,247)"/>
<path d="M0 0 C2.04119788 1.61594832 4.04072937 3.2856382 6 5 C6 5.66 6 6.32 6 7 C6.99 7.33 7.98 7.66 9 8 C10.38576923 9.62332967 11.72641268 11.28724465 13 13 C8.73133091 12.52570343 6.89066852 9.96478822 4 7 C3.01 6.67 2.02 6.34 1 6 C0.67 4.02 0.34 2.04 0 0 Z " fill="#656789" transform="translate(370,134)"/>
<path d="M0 0 C1.7734375 1.5234375 1.7734375 1.5234375 3 3 C2.10796875 2.95359375 1.2159375 2.9071875 0.296875 2.859375 C-0.87359375 2.82328125 -2.0440625 2.7871875 -3.25 2.75 C-4.41015625 2.70359375 -5.5703125 2.6571875 -6.765625 2.609375 C-10.61678324 3.07449073 -11.53663818 4.12984449 -14 7 C-14.66 7 -15.32 7 -16 7 C-15.0195412 4.41515408 -14.06077857 3.05156969 -11.9375 1.25 C-8.01204065 -0.42040824 -4.21139026 -0.80442286 0 0 Z " fill="#C37C85" transform="translate(202,262)"/>
<path d="M0 0 C3.21524305 1.40844718 5.32183868 3.10344786 7.75 5.625 C8.67039063 6.57246094 8.67039063 6.57246094 9.609375 7.5390625 C10.29773438 8.26222656 10.29773438 8.26222656 11 9 C10.67 9.99 10.34 10.98 10 12 C6.24623848 10.74874616 5.75926711 9.4347596 4 6 C4 5.34 4 4.68 4 4 C2.68 3.67 1.36 3.34 0 3 C0 2.01 0 1.02 0 0 Z " fill="#434579" transform="translate(132,241)"/>
<path d="M0 0 C1.32 0.66 2.64 1.32 4 2 C3.67 2.99 3.34 3.98 3 5 C0.71484375 5.94921875 0.71484375 5.94921875 -2.0625 6.6875 C-3.44115234 7.06455078 -3.44115234 7.06455078 -4.84765625 7.44921875 C-5.55792969 7.63097656 -6.26820313 7.81273437 -7 8 C-6.34 7.01 -5.68 6.02 -5 5 C-4.34 5 -3.68 5 -3 5 C-2.690625 4.360625 -2.38125 3.72125 -2.0625 3.0625 C-1 1 -1 1 0 0 Z " fill="#565A81" transform="translate(272,346)"/>
<path d="M0 0 C0.33 0 0.66 0 1 0 C1.24213848 2.90566174 1.16185671 4.66729453 -0.125 7.3125 C-2 9 -2 9 -5.1875 9.25 C-6.115625 9.1675 -7.04375 9.085 -8 9 C-7.04270084 7.87411986 -6.08412105 6.7493285 -5.125 5.625 C-4.59132813 4.99851563 -4.05765625 4.37203125 -3.5078125 3.7265625 C-2.38567993 2.44163349 -1.20628025 1.20628025 0 0 Z " fill="#393E63" transform="translate(370,248)"/>
<path d="M0 0 C-0.99 0.66 -1.98 1.32 -3 2 C-3.67482422 2.76763672 -3.67482422 2.76763672 -4.36328125 3.55078125 C-6.53837573 5.47670023 -8.34509619 5.70761364 -11.1875 6.1875 C-12.08855469 6.34605469 -12.98960937 6.50460938 -13.91796875 6.66796875 C-14.94857422 6.83232422 -14.94857422 6.83232422 -16 7 C-6.96523669 -0.48594675 -6.96523669 -0.48594675 0 0 Z " fill="#A73B36" transform="translate(248,128)"/>
<path d="M0 0 C0.33 0 0.66 0 1 0 C1 3.96 1 7.92 1 12 C1.66 12 2.32 12 3 12 C3.33 13.32 3.66 14.64 4 16 C2.1875 17.5625 2.1875 17.5625 0 19 C-0.99 18.67 -1.98 18.34 -3 18 C-2.01 17.67 -1.02 17.34 0 17 C-0.08378906 15.85660156 -0.16757813 14.71320313 -0.25390625 13.53515625 C-0.35704794 12.04428998 -0.45989747 10.55340347 -0.5625 9.0625 C-0.61857422 8.30775391 -0.67464844 7.55300781 -0.73242188 6.77539062 C-0.86176157 4.85254042 -0.93516912 2.92610452 -1 1 C-0.67 0.67 -0.34 0.34 0 0 Z " fill="#962B34" transform="translate(250,200)"/>
<path d="M0 0 C0.66 0 1.32 0 2 0 C2.66 2.31 3.32 4.62 4 7 C3.34 7.66 2.68 8.32 2 9 C0.02 8.01 -1.96 7.02 -4 6 C-3.34 4.68 -2.68 3.36 -2 2 C-1.34 2 -0.68 2 0 2 C0 1.34 0 0.68 0 0 Z " fill="#292F7B" transform="translate(379,169)"/>
<path d="M0 0 C2.125 0.9375 2.125 0.9375 4 2 C3.33613281 2.19335938 2.67226562 2.38671875 1.98828125 2.5859375 C-4.59789309 4.52751352 -4.59789309 4.52751352 -11 7 C-11 6.01 -11 5.02 -11 4 C-10.34 4 -9.68 4 -9 4 C-9.33 3.01 -9.66 2.02 -10 1 C-7.98177083 1.03255208 -5.96354167 1.06510417 -3.9453125 1.09765625 C-1.91814596 1.12649242 -1.91814596 1.12649242 0 0 Z " fill="#AF4B42" transform="translate(244,115)"/>
<path d="M0 0 C3 0 3 0 5.625 2.1875 C8.00552268 5.00654002 8.69121904 6.39755548 9 10 C9.66 10 10.32 10 11 10 C11.33 10.99 11.66 11.98 12 13 C10.1875 12.875 10.1875 12.875 8 12 C6.94991347 10.02583732 5.95012124 8.02417134 5 6 C4.01 5.34 3.02 4.68 2 4 C2 3.34 2 2.68 2 2 C1.34 2 0.68 2 0 2 C0 1.34 0 0.68 0 0 Z " fill="#2B2E6C" transform="translate(205,344)"/>
<path d="M0 0 C1.32 0 2.64 0 4 0 C4 8.91 4 17.82 4 27 C3.67 27 3.34 27 3 27 C2.98018066 26.32420898 2.96036133 25.64841797 2.93994141 24.95214844 C2.84456762 21.88437956 2.73493835 18.81728002 2.625 15.75 C2.57859375 14.15478516 2.57859375 14.15478516 2.53125 12.52734375 C2.49257813 11.50253906 2.45390625 10.47773438 2.4140625 9.421875 C2.3826416 8.47924805 2.3512207 7.53662109 2.31884766 6.56542969 C1.99399023 3.95164571 1.32323838 2.25646966 0 0 Z " fill="#A25659" transform="translate(304,230)"/>
<path d="M0 0 C4.13621084 3.3810038 7.81316569 6.66590534 11 11 C8.625 10.6875 8.625 10.6875 6 10 C5.34 9.01 4.68 8.02 4 7 C3.01 6.34 2.02 5.68 1 5 C0.3125 2.375 0.3125 2.375 0 0 Z " fill="#5E668F" transform="translate(106,214)"/>
<path d="M0 0 C0.66 0 1.32 0 2 0 C2 0.66 2 1.32 2 2 C2.66 2 3.32 2 4 2 C4 2.66 4 3.32 4 4 C4.61875 4.2475 5.2375 4.495 5.875 4.75 C8.37326623 6.21956837 9.06694014 7.28564404 10 10 C9.67 10.66 9.34 11.32 9 12 C7.5 10.625 7.5 10.625 6 9 C6 8.34 6 7.68 6 7 C5.38125 6.773125 4.7625 6.54625 4.125 6.3125 C1.38589791 4.62070165 0.94975528 3.00755839 0 0 Z " fill="#616482" transform="translate(179,320)"/>
<path d="M0 0 C1.65 0.33 3.3 0.66 5 1 C5 4 5 4 3.6875 5.6875 C2 7 2 7 -1 7 C-0.67 4.69 -0.34 2.38 0 0 Z " fill="#494C7B" transform="translate(439,207)"/>
<path d="M0 0 C0.99 0 1.98 0 3 0 C3 0.66 3 1.32 3 2 C2.34 2 1.68 2 1 2 C1.061875 2.763125 1.12375 3.52625 1.1875 4.3125 C1 7 1 7 -0.375 8.8125 C-2 10 -2 10 -4 10 C-4 10.66 -4 11.32 -4 12 C-4.66 12 -5.32 12 -6 12 C-6 11.01 -6 10.02 -6 9 C-4.35 8.34 -2.7 7.68 -1 7 C-1.309375 5.824375 -1.309375 5.824375 -1.625 4.625 C-1.74875 3.75875 -1.8725 2.8925 -2 2 C-1.34 1.34 -0.68 0.68 0 0 Z " fill="#282C70" transform="translate(105,198)"/>
<path d="M0 0 C0.66 2.31 1.32 4.62 2 7 C-1.0831351 5.80100302 -4.06279492 4.52299523 -7 3 C-7 2.34 -7 1.68 -7 1 C-4.53721199 -0.231394 -2.7204945 -0.07159196 0 0 Z " fill="#AF3F39" transform="translate(293,91)"/>
<path d="M0 0 C1.32 0.33 2.64 0.66 4 1 C3.64950425 4.24208567 3.43778819 5.61527704 0.9375 7.8125 C0.298125 8.204375 -0.34125 8.59625 -1 9 C-1.66 7.35 -2.32 5.7 -3 4 C-1.35 3.67 0.3 3.34 2 3 C2 2.34 2 1.68 2 1 C1.34 0.67 0.68 0.34 0 0 Z " fill="#3F4279" transform="translate(292,354)"/>
<path d="M0 0 C0.66 0 1.32 0 2 0 C2 0.66 2 1.32 2 2 C2.66 2 3.32 2 4 2 C4 2.66 4 3.32 4 4 C4.61875 4.20625 5.2375 4.4125 5.875 4.625 C8.84653645 6.54775888 9.13024659 8.66594527 10 12 C8 10.625 8 10.625 6 9 C6 8.34 6 7.68 6 7 C5.38125 6.773125 4.7625 6.54625 4.125 6.3125 C1.38589791 4.62070165 0.94975528 3.00755839 0 0 Z " fill="#646682" transform="translate(203,344)"/>
<path d="M0 0 C0.66 0.66 1.32 1.32 2 2 C2.99 2.33 3.98 2.66 5 3 C2.36 5.64 -0.28 8.28 -3 11 C-3.33 10.01 -3.66 9.02 -4 8 C-3.34 7.34 -2.68 6.68 -2 6 C-1.28591666 4.01643517 -0.61382258 2.01684563 0 0 Z " fill="#4D5083" transform="translate(379,268)"/>
<path d="M0 0 C2.875 0.75 2.875 0.75 6 2 C7.125 4.0625 7.125 4.0625 8 6 C10.05000871 6.80528889 10.05000871 6.80528889 12 7 C11.67 7.99 11.34 8.98 11 10 C9 8.625 9 8.625 7 7 C7 6.34 7 5.68 7 5 C5.35 5 3.7 5 2 5 C1.34 3.35 0.68 1.7 0 0 Z " fill="#33366D" transform="translate(236,377)"/>
<path d="M0 0 C3.08857158 2.31642868 4.77296539 3.59591216 5.40234375 7.48828125 C5.43589567 10.06432336 5.42739568 12.45812045 5 15 C4.34 15.66 3.68 16.32 3 17 C3.03480469 16.30132812 3.06960937 15.60265625 3.10546875 14.8828125 C3.13253906 13.97273438 3.15960938 13.06265625 3.1875 12.125 C3.22230469 11.22007812 3.25710937 10.31515625 3.29296875 9.3828125 C3.14794922 8.20332031 3.14794922 8.20332031 3 7 C2.01 6.34 1.02 5.68 0 5 C-0.1875 2.375 -0.1875 2.375 0 0 Z " fill="#AF6269" transform="translate(205,265)"/>
<path d="M0 0 C0.33 0.66 0.66 1.32 1 2 C1.66 2.33 2.32 2.66 3 3 C1.1746875 3.680625 1.1746875 3.680625 -0.6875 4.375 C-3.8080927 5.54452941 -6.91230616 6.74562438 -10 8 C-9.4375 5.625 -9.4375 5.625 -8 3 C-4.4375 1.75 -4.4375 1.75 -1 1 C-0.67 0.67 -0.34 0.34 0 0 Z " fill="#AC4440" transform="translate(227,89)"/>
<path d="M0 0 C2 1 4 2 6 3 C6 3.66 6 4.32 6 5 C5.01 5.495 5.01 5.495 4 6 C3.67 6.99 3.34 7.98 3 9 C2.34 9 1.68 9 1 9 C1 9.66 1 10.32 1 11 C0.34 10.67 -0.32 10.34 -1 10 C-0.649375 8.906875 -0.29875 7.81375 0.0625 6.6875 C1.33039454 3.09079627 1.33039454 3.09079627 0 0 Z " fill="#292C59" transform="translate(407,205)"/>
<path d="M0 0 C0.33 0.66 0.66 1.32 1 2 C2.32 2 3.64 2 5 2 C4.67 4.31 4.34 6.62 4 9 C2.0625 8.6875 2.0625 8.6875 0 8 C-0.33 7.01 -0.66 6.02 -1 5 C-0.34 4.67 0.32 4.34 1 4 C0.67 2.68 0.34 1.36 0 0 Z " fill="#AC1B15" transform="translate(254,181)"/>
<path d="M0 0 C0.33 0 0.66 0 1 0 C1.9765625 6.0546875 1.9765625 6.0546875 2 8 C0 10 0 10 -3.5 10.3125 C-5.2325 10.1578125 -5.2325 10.1578125 -7 10 C-7.66 9.01 -8.32 8.02 -9 7 C-6.03 7.33 -3.06 7.66 0 8 C0 5.36 0 2.72 0 0 Z " fill="#A0444C" transform="translate(317,250)"/>
<path d="M0 0 C3.7364797 0.93411993 6.60899585 2.22742965 10 4 C9.67 4.99 9.34 5.98 9 7 C8.01 7.33 7.02 7.66 6 8 C4.02 5.36 2.04 2.72 0 0 Z " fill="#444771" transform="translate(400,199)"/>
<path d="M0 0 C0.99 0.33 1.98 0.66 3 1 C2.67 2.32 2.34 3.64 2 5 C-0.97 4.505 -0.97 4.505 -4 4 C-4.33 4.66 -4.66 5.32 -5 6 C-6.32 5.34 -7.64 4.68 -9 4 C-8.01 4 -7.02 4 -6 4 C-6 3.34 -6 2.68 -6 2 C-4.02 2 -2.04 2 0 2 C0 1.34 0 0.68 0 0 Z " fill="#AF1A13" transform="translate(229,73)"/>
<path d="M0 0 C0.99 0 1.98 0 3 0 C3 0.66 3 1.32 3 2 C3.61875 2.20625 4.2375 2.4125 4.875 2.625 C7.84653645 4.54775888 8.13024659 6.66594527 9 10 C7 8.625 7 8.625 5 7 C5 6.34 5 5.68 5 5 C4.34 5 3.68 5 3 5 C3 4.34 3 3.68 3 3 C2.01 2.67 1.02 2.34 0 2 C0 1.34 0 0.68 0 0 Z " fill="#686A84" transform="translate(240,382)"/>
<path d="M0 0 C0.99 0.33 1.98 0.66 3 1 C0.03 3.97 -2.94 6.94 -6 10 C-6.66 9.34 -7.32 8.68 -8 8 C-5.36 5.36 -2.72 2.72 0 0 Z " fill="#535775" transform="translate(288,363)"/>
<path d="M0 0 C1.51400391 0.01740234 1.51400391 0.01740234 3.05859375 0.03515625 C4.07050781 0.04417969 5.08242187 0.05320313 6.125 0.0625 C7.29869141 0.07990234 7.29869141 0.07990234 8.49609375 0.09765625 C8.49609375 0.42765625 8.49609375 0.75765625 8.49609375 1.09765625 C6.60063983 1.5783216 4.70471336 2.05712368 2.80859375 2.53515625 C1.22498047 2.93541016 1.22498047 2.93541016 -0.390625 3.34375 C-3.08673795 3.99663557 -5.77966385 4.57706818 -8.50390625 5.09765625 C-7.69953125 4.45828125 -6.89515625 3.81890625 -6.06640625 3.16015625 C-2.24913677 0.08771984 -2.24913677 0.08771984 0 0 Z " fill="#B6696E" transform="translate(205.50390625,215.90234375)"/>
<path d="M0 0 C0.66 0.33 1.32 0.66 2 1 C1.21625 1.7425 0.4325 2.485 -0.375 3.25 C-3.00612679 5.73654809 -3.00612679 5.73654809 -4.125 8.25 C-4.41375 8.8275 -4.7025 9.405 -5 10 C-5.99 10.33 -6.98 10.66 -8 11 C-7.43040847 7.37386801 -6.07625466 5.74482259 -3.4375 3.25 C-2.79683594 2.63640625 -2.15617187 2.0228125 -1.49609375 1.390625 C-1.00238281 0.93171875 -0.50867188 0.4728125 0 0 Z " fill="#2C2E77" transform="translate(81,197)"/>
<path d="M0 0 C0.99 0.33 1.98 0.66 3 1 C1.10019993 4.51463012 -0.56635317 6.89550678 -4 9 C-4.66 9 -5.32 9 -6 9 C-6 8.01 -6 7.02 -6 6 C-5.01 5.34 -4.02 4.68 -3 4 C-2.67 3.34 -2.34 2.68 -2 2 C-1.34 2 -0.68 2 0 2 C0 1.34 0 0.68 0 0 Z " fill="#B14943" transform="translate(266,176)"/>
<path d="M0 0 C2.04119788 1.61594832 4.04072937 3.2856382 6 5 C6 5.66 6 6.32 6 7 C6.66 7.33 7.32 7.66 8 8 C6.25 8.75 6.25 8.75 4 9 C1.75 7.375 1.75 7.375 0 5 C-0.25 2.25 -0.25 2.25 0 0 Z " fill="#434779" transform="translate(394,158)"/>
<path d="M0 0 C0.66 0.33 1.32 0.66 2 1 C1.21625 1.7425 0.4325 2.485 -0.375 3.25 C-2.56504531 5.54433318 -3.82731386 7.12158858 -5 10 C-5.66 10 -6.32 10 -7 10 C-7 8.68 -7 7.36 -7 6 C-6.34 6 -5.68 6 -5 6 C-4.731875 5.38125 -4.46375 4.7625 -4.1875 4.125 C-3 2 -3 2 0 0 Z " fill="#2A2D4E" transform="translate(303,316)"/>
<path d="M0 0 C0.99 0.33 1.98 0.66 3 1 C3 2.32 3 3.64 3 5 C2.01 5 1.02 5 0 5 C-0.33 8.3 -0.66 11.6 -1 15 C-1.33 15 -1.66 15 -2 15 C-2.3690205 4.44191344 -2.3690205 4.44191344 0 0 Z " fill="#B65855" transform="translate(242,161)"/>
<path d="M0 0 C0.99 0.99 1.98 1.98 3 3 C1.6302836 6.99500618 -0.25722422 9.80009492 -3 13 C-3 11.68 -3 10.36 -3 9 C-2.34 9 -1.68 9 -1 9 C-1.33 8.01 -1.66 7.02 -2 6 C-1.34 6 -0.68 6 0 6 C0 4.02 0 2.04 0 0 Z " fill="#B15A55" transform="translate(300,115)"/>
<path d="M0 0 C1.43793392 0.31049726 2.8753318 0.6234776 4.3125 0.9375 C5.11300781 1.11152344 5.91351563 1.28554687 6.73828125 1.46484375 C9 2 9 2 12 3 C12.33 3.99 12.66 4.98 13 6 C3.40546697 4.44191344 3.40546697 4.44191344 0 0 Z " fill="#B04946" transform="translate(279,71)"/>
<path d="M0 0 C0.99 0.33 1.98 0.66 3 1 C3.6875 3.0625 3.6875 3.0625 4 5 C5.4540625 5.185625 5.4540625 5.185625 6.9375 5.375 C8.4534375 5.684375 8.4534375 5.684375 10 6 C10.33 6.66 10.66 7.32 11 8 C4.63265306 7.63265306 4.63265306 7.63265306 1.5625 4.5625 C0 2 0 2 0 0 Z " fill="#A6555B" transform="translate(185,279)"/>
<path d="M0 0 C0.99 0.33 1.98 0.66 3 1 C3 2.32 3 3.64 3 5 C1.35 5.33 -0.3 5.66 -2 6 C-2 4.68 -2 3.36 -2 2 C-1.34 2 -0.68 2 0 2 C0 1.34 0 0.68 0 0 Z " fill="#9A1E26" transform="translate(309,264)"/>
<path d="M0 0 C2.375 0.1875 2.375 0.1875 5 1 C6.375 3.4375 6.375 3.4375 7 6 C6.67 6.66 6.34 7.32 6 8 C5.34 8 4.68 8 4 8 C2.66666667 5.33333333 1.33333333 2.66666667 0 0 Z " fill="#2A2D75" transform="translate(101,240)"/>
<path d="M0 0 C0.66 0 1.32 0 2 0 C2 1.65 2 3.3 2 5 C2.66 5 3.32 5 4 5 C4 5.66 4 6.32 4 7 C4.66 7 5.32 7 6 7 C5.67 7.66 5.34 8.32 5 9 C2.03 6.69 -0.94 4.38 -4 2 C-3.34 1.67 -2.68 1.34 -2 1 C-1.34 1.33 -0.68 1.66 0 2 C0 1.34 0 0.68 0 0 Z " fill="#AD433C" transform="translate(301,98)"/>
<path d="M0 0 C0.66 0.33 1.32 0.66 2 1 C2 1.99 2 2.98 2 4 C-0.5 6.1875 -0.5 6.1875 -3 8 C-3.36923077 3.44615385 -3.36923077 3.44615385 -1.5 1.1875 C-1.005 0.795625 -0.51 0.40375 0 0 Z " fill="#4B4E76" transform="translate(303,346)"/>
<path d="M0 0 C1.98 0 3.96 0 6 0 C4.02 2.31 2.04 4.62 0 7 C-1.04449911 3.86650268 -0.93423645 3.01031744 0 0 Z " fill="#525780" transform="translate(340,308)"/>
<path d="M0 0 C1.98 0 3.96 0 6 0 C4.02 2.31 2.04 4.62 0 7 C-1.04449911 3.86650268 -0.93423645 3.01031744 0 0 Z " fill="#4F517E" transform="translate(364,284)"/>
<path d="M0 0 C0.66 0 1.32 0 2 0 C3.7143618 1.95927063 5.38405168 3.95880212 7 6 C6.01 7.485 6.01 7.485 5 9 C3.5 7.625 3.5 7.625 2 6 C2 5.34 2 4.68 2 4 C1.01 3.67 0.02 3.34 -1 3 C-0.67 2.01 -0.34 1.02 0 0 Z " fill="#646789" transform="translate(118,258)"/>
<path d="M0 0 C1.97265625 0.265625 1.97265625 0.265625 4.97265625 2.265625 C1.85085224 3.23223863 -0.5481817 3.25551409 -3.77734375 2.828125 C-4.97617188 2.67537109 -4.97617188 2.67537109 -6.19921875 2.51953125 C-6.8025 2.43574219 -7.40578125 2.35195312 -8.02734375 2.265625 C-5.42029477 -0.34142398 -3.55396134 0.02657167 0 0 Z " fill="#A4372E" transform="translate(258.02734375,142.734375)"/>
<path d="M0 0 C0.33 0.99 0.66 1.98 1 3 C0.01 3.33 -0.98 3.66 -2 4 C-2 5.32 -2 6.64 -2 8 C-1.34 8 -0.68 8 0 8 C0 8.66 0 9.32 0 10 C-0.99 10 -1.98 10 -3 10 C-3.75 7.25 -3.75 7.25 -4 4 C-2.0625 1.625 -2.0625 1.625 0 0 Z " fill="#AD5851" transform="translate(212,113)"/>
<path d="M0 0 C1.17539996 0.92652701 2.34010577 1.86663387 3.5 2.8125 C4.1496875 3.33457031 4.799375 3.85664063 5.46875 4.39453125 C7 6 7 6 7 9 C6.67 8.34 6.34 7.68 6 7 C3.47266765 6.34444881 3.47266765 6.34444881 1 6 C0.67 4.02 0.34 2.04 0 0 Z " fill="#606792" transform="translate(158,266)"/>
<path d="M0 0 C2.25 0.125 2.25 0.125 5 1 C7.3125 4.0625 7.3125 4.0625 9 7 C8.67 7.66 8.34 8.32 8 9 C7.34 9 6.68 9 6 9 C5.566875 8.071875 5.13375 7.14375 4.6875 6.1875 C3.27961373 3.52815927 2.23876444 1.91894095 0 0 Z " fill="#2B2E6D" transform="translate(111,251)"/>
<path d="M0 0 C0.66 0.33 1.32 0.66 2 1 C0.62100451 3.75799098 -1.37672362 4.43852596 -4 6 C-5.75149165 7.58245275 -5.75149165 7.58245275 -7 9 C-6.09539273 5.29933391 -5.56131642 3.43502022 -2.5 1.0625 C-1.675 0.711875 -0.85 0.36125 0 0 Z " fill="#2B2E4D" transform="translate(382,238)"/>
<path d="M0 0 C3.91402949 1.26941497 5.79072873 2.51167694 8 6 C7.67 6.66 7.34 7.32 7 8 C6.34 7.34 5.68 6.68 5 6 C2.93125966 5.3574765 2.93125966 5.3574765 1 5 C0.67 3.35 0.34 1.7 0 0 Z " fill="#2C2F73" transform="translate(398,194)"/>
<path d="M0 0 C0.66 0 1.32 0 2 0 C2.33 0.66 2.66 1.32 3 2 C3.99 2.66 4.98 3.32 6 4 C2.67465243 5.10844919 0.37817425 4.84454356 -3 4 C-1.625 2 -1.625 2 0 0 Z " fill="#A51F12" transform="translate(284,105)"/>
<path d="M0 0 C0.66 0.66 1.32 1.32 2 2 C-0.31 4.31 -2.62 6.62 -5 9 C-5.33 8.01 -5.66 7.02 -6 6 C-4.02 4.02 -2.04 2.04 0 0 Z " fill="#565977" transform="translate(326,325)"/>
<path d="M0 0 C1.98 1.65 3.96 3.3 6 5 C5.01 6.485 5.01 6.485 4 8 C2 6.8125 2 6.8125 0 5 C-0.25 2.3125 -0.25 2.3125 0 0 Z " fill="#484A82" transform="translate(195,303)"/>
<path d="M0 0 C0.66 0.33 1.32 0.66 2 1 C1.319375 1.556875 1.319375 1.556875 0.625 2.125 C-1.47029394 4.54264685 -2.12013285 6.95430602 -3 10 C-3.99 10 -4.98 10 -6 10 C-2.62068966 1.31034483 -2.62068966 1.31034483 0 0 Z " fill="#2A2D75" transform="translate(349,298)"/>
<path d="M0 0 C3.59391114 1.33488128 6.75490696 2.96022723 10 5 C7.39417629 5.93065133 6.35801776 6.14917407 3.75 5.0625 C3.1725 4.711875 2.595 4.36125 2 4 C2 3.34 2 2.68 2 2 C1.34 2 0.68 2 0 2 C0 1.34 0 0.68 0 0 Z " fill="#B1676D" transform="translate(303,282)"/>
<path d="M0 0 C0.79921875 0.01804687 1.5984375 0.03609375 2.421875 0.0546875 C3.02515625 0.07789063 3.6284375 0.10109375 4.25 0.125 C4.25 0.455 4.25 0.785 4.25 1.125 C3.65832031 1.24617188 3.06664062 1.36734375 2.45703125 1.4921875 C-1.78803585 2.39244643 -5.77439661 3.32956621 -9.75 5.125 C-8.75 2.125 -8.75 2.125 -6.984375 0.9453125 C-4.49281777 0.03057995 -2.64383164 -0.07775975 0 0 Z " fill="#C68388" transform="translate(255.75,261.875)"/>
<path d="M0 0 C5.50366792 -0.32374517 9.43672206 -0.53286034 14 3 C11.01316063 4.49341969 9.04839022 3.40648676 5.875 2.5625 C4.77929688 2.27503906 3.68359375 1.98757813 2.5546875 1.69140625 C1.71164062 1.46324219 0.86859375 1.23507812 0 1 C0 0.67 0 0.34 0 0 Z " fill="#D18891" transform="translate(309,262)"/>
<path d="M0 0 C2.475 0.495 2.475 0.495 5 1 C5.33 2.32 5.66 3.64 6 5 C5.01 5.495 5.01 5.495 4 6 C1.7522025 3.94766315 0.9977758 2.99332739 0 0 Z " fill="#363969" transform="translate(123,264)"/>
<path d="M0 0 C2 1 4 2 6 3 C6 4.32 6 5.64 6 7 C3.53199953 5.84826645 1.95216435 4.95216435 0 3 C0 2.01 0 1.02 0 0 Z " fill="#606281" transform="translate(83,224)"/>
<path d="M0 0 C0.99 0.33 1.98 0.66 3 1 C-0.625 5.875 -0.625 5.875 -4 7 C-3.43628586 3.73045798 -2.50037734 2.17424117 0 0 Z " fill="#323352" transform="translate(399,219)"/>
<path d="M0 0 C0 0.99 0 1.98 0 3 C-1.65 3.33 -3.3 3.66 -5 4 C-5.33 4.99 -5.66 5.98 -6 7 C-7.32 6.34 -8.64 5.68 -10 5 C-6.7 3.35 -3.4 1.7 0 0 Z " fill="#AC4742" transform="translate(218,75)"/>
<path d="M0 0 C0 3 0 3 -1 5 C-0.34 5.33 0.32 5.66 1 6 C-0.97746603 6.73080266 -2.98072489 7.39421747 -5 8 C-5.66 7.67 -6.32 7.34 -7 7 C-5.625 5.5 -5.625 5.5 -4 4 C-3.34 4 -2.68 4 -2 4 C-1.34 2.68 -0.68 1.36 0 0 Z " fill="#7A7E99" transform="translate(288,330)"/>
<path d="M0 0 C2.31 1.98 4.62 3.96 7 6 C3 7 3 7 1 6 C0.375 2.9375 0.375 2.9375 0 0 Z " fill="#646997" transform="translate(168,276)"/>
<path d="M0 0 C2.39489543 0.74324341 3.70777616 1.47057354 4.93359375 3.69140625 C5.67219923 5.44073501 6.34049685 7.21934149 7 9 C6.34 9 5.68 9 5 9 C3.7109375 7.5390625 3.7109375 7.5390625 2.375 5.625 C1.92898437 4.99851563 1.48296875 4.37203125 1.0234375 3.7265625 C0 2 0 2 0 0 Z " fill="#B45B57" transform="translate(228,145)"/>
<path d="M0 0 C2.64 0.33 5.28 0.66 8 1 C8.33 2.65 8.66 4.3 9 6 C7 6 7 6 5.0625 4.125 C4.381875 3.42375 3.70125 2.7225 3 2 C2.01 1.34 1.02 0.68 0 0 Z " fill="#AD443D" transform="translate(262,146)"/>
<path d="M0 0 C0.99 0 1.98 0 3 0 C3 0.66 3 1.32 3 2 C2.34 2 1.68 2 1 2 C1 2.66 1 3.32 1 4 C-0.98 4 -2.96 4 -5 4 C-5.33 3.01 -5.66 2.02 -6 1 C-4.7934375 1.0309375 -4.7934375 1.0309375 -3.5625 1.0625 C-1.06645115 1.29633621 -1.06645115 1.29633621 0 0 Z " fill="#B86864" transform="translate(221,128)"/>
<path d="M0 0 C3.63 0 7.26 0 11 0 C7 3 7 3 4.375 3.375 C3.199375 3.189375 3.199375 3.189375 2 3 C1.34 2.01 0.68 1.02 0 0 Z " fill="#A91D10" transform="translate(235,114)"/>
<path d="M0 0 C3.93673644 1.31224548 6.22719294 2.91910327 9 6 C7.35 5.67 5.7 5.34 4 5 C4 4.34 4 3.68 4 3 C2.68 2.67 1.36 2.34 0 2 C0 1.34 0 0.68 0 0 Z " fill="#B9635C" transform="translate(286,105)"/>
<path d="M0 0 C0.99 0.33 1.98 0.66 3 1 C0.525 4.465 0.525 4.465 -2 8 C-3.0625 6.125 -3.0625 6.125 -4 4 C-3.67 3.34 -3.34 2.68 -3 2 C-2.01 2 -1.02 2 0 2 C0 1.34 0 0.68 0 0 Z " fill="#B3504B" transform="translate(317,98)"/>
<path d="M0 0 C1.08667969 0.29197266 1.08667969 0.29197266 2.1953125 0.58984375 C2.74960937 0.74582031 3.30390625 0.90179688 3.875 1.0625 C0.875 3.0625 0.875 3.0625 -2.25 2.8125 C-3.19875 2.565 -4.1475 2.3175 -5.125 2.0625 C-5.455 1.4025 -5.785 0.7425 -6.125 0.0625 C-3.57797384 -1.21101308 -2.6967055 -0.73941925 0 0 Z " fill="#AA1C0E" transform="translate(286.125,74.9375)"/>
<path d="M0 0 C0.33 1.32 0.66 2.64 1 4 C-1.62198774 6.15377564 -3.64404172 7.40072174 -7 8 C-5.625 6 -5.625 6 -4 4 C-3.34 4 -2.68 4 -2 4 C-1.34 2.68 -0.68 1.36 0 0 Z " fill="#7E8198" transform="translate(264,354)"/>
<path d="M0 0 C1.14926266 0.95421808 2.29430541 1.91352045 3.4375 2.875 C4.07558594 3.40867187 4.71367187 3.94234375 5.37109375 4.4921875 C7 6 7 6 8 8 C5.125 7.375 5.125 7.375 2 6 C0.625 2.875 0.625 2.875 0 0 Z " fill="#4D527C" transform="translate(209,317)"/>
<path d="M0 0 C3.24208567 0.35049575 4.61527704 0.56221181 6.8125 3.0625 C7.204375 3.701875 7.59625 4.34125 8 5 C5 5 5 5 2.3125 2.5 C1.549375 1.675 0.78625 0.85 0 0 Z " fill="#343971" transform="translate(118,229)"/>
<path d="M0 0 C2.31 1.98 4.62 3.96 7 6 C6.34 6.66 5.68 7.32 5 8 C3.02 5.69 1.04 3.38 -1 1 C-0.67 0.67 -0.34 0.34 0 0 Z " fill="#404364" transform="translate(369,166)"/>
<path d="M0 0 C1.32 0.33 2.64 0.66 4 1 C4 1.99 4 2.98 4 4 C5.32 4.33 6.64 4.66 8 5 C6.25 5.75 6.25 5.75 4 6 C1.75 4.1875 1.75 4.1875 0 2 C0 1.34 0 0.68 0 0 Z " fill="#B35654" transform="translate(195,103)"/>
<path d="M0 0 C7.57142857 1.85714286 7.57142857 1.85714286 10 5 C6.55881664 5 4.17242648 4.31035007 1 3 C0.67 2.01 0.34 1.02 0 0 Z " fill="#C16B69" transform="translate(291,75)"/>
<path d="M0 0 C2.475 0.495 2.475 0.495 5 1 C5.66 2.98 6.32 4.96 7 7 C5 5.625 5 5.625 3 4 C3 3.34 3 2.68 3 2 C2.01 1.67 1.02 1.34 0 1 C0 0.67 0 0.34 0 0 Z " fill="#757790" transform="translate(194,337)"/>
<path d="M0 0 C2.0625 0.1875 2.0625 0.1875 4 1 C4.33 1.99 4.66 2.98 5 4 C4.01 4 3.02 4 2 4 C1.67 4.66 1.34 5.32 1 6 C0.67 5.01 0.34 4.02 0 3 C-0.66 2.67 -1.32 2.34 -2 2 C-1.34 1.34 -0.68 0.68 0 0 Z " fill="#525588" transform="translate(192,331)"/>
<path d="M0 0 C2.475 0.495 2.475 0.495 5 1 C5.66 2.98 6.32 4.96 7 7 C5 5.625 5 5.625 3 4 C3 3.34 3 2.68 3 2 C2.01 1.67 1.02 1.34 0 1 C0 0.67 0 0.34 0 0 Z " fill="#757790" transform="translate(170,313)"/>
<path d="M0 0 C0.33 0.99 0.66 1.98 1 3 C-0.32 4.32 -1.64 5.64 -3 7 C-3.99 6.67 -4.98 6.34 -6 6 C-4.02 4.02 -2.04 2.04 0 0 Z " fill="#46485E" transform="translate(324,294)"/>
<path d="M0 0 C1.75 0.0625 1.75 0.0625 4 1 C5.59501537 3.24164322 6.74543018 5.53566643 8 8 C7.34 8 6.68 8 6 8 C6 7.34 6 6.68 6 6 C5.34 6 4.68 6 4 6 C4 5.34 4 4.68 4 4 C3.34 4 2.68 4 2 4 C1.34 2.68 0.68 1.36 0 0 Z " fill="#2D3075" transform="translate(129,268)"/>
<path d="M0 0 C2.31 1.98 4.62 3.96 7 6 C5.68 6.33 4.36 6.66 3 7 C1 4 1 4 0 0 Z " fill="#4E517D" transform="translate(147,255)"/>
<path d="M0 0 C3.16717283 1.58358642 4.73268318 2.45263699 6.3125 5.6875 C6.539375 6.450625 6.76625 7.21375 7 8 C1.21538462 4.55384615 1.21538462 4.55384615 0.125 1.75 C0.08375 1.1725 0.0425 0.595 0 0 Z " fill="#AC5F64" transform="translate(310,219)"/>
<path d="M0 0 C0.33 0.66 0.66 1.32 1 2 C0.67 2.99 0.34 3.98 0 5 C-0.66 5 -1.32 5 -2 5 C-2 5.66 -2 6.32 -2 7 C-3.32 6.67 -4.64 6.34 -6 6 C-4.02 4.02 -2.04 2.04 0 0 Z " fill="#2A2C4A" transform="translate(97,178)"/>
<path d="M0 0 C1.32 0.66 2.64 1.32 4 2 C4 2.99 4 3.98 4 5 C2.35 5 0.7 5 -1 5 C-0.67 3.35 -0.34 1.7 0 0 Z " fill="#B74441" transform="translate(315,90)"/>
<path d="M0 0 C1.65 0 3.3 0 5 0 C5 0.66 5 1.32 5 2 C3.36935236 3.05771739 1.69719127 4.05273046 0 5 C-0.99 5.66 -1.98 6.32 -3 7 C-1.125 2.25 -1.125 2.25 0 0 Z " fill="#282B6A" transform="translate(286,361)"/>
<path d="M0 0 C2.31 1.98 4.62 3.96 7 6 C6.34 6.66 5.68 7.32 5 8 C0 2.25 0 2.25 0 0 Z " fill="#414470" transform="translate(229,337)"/>
<path d="M0 0 C1.98 1.65 3.96 3.3 6 5 C5.01 5.66 4.02 6.32 3 7 C3 6.34 3 5.68 3 5 C2.01 4.67 1.02 4.34 0 4 C0 2.68 0 1.36 0 0 Z " fill="#4D5080" transform="translate(220,328)"/>
<path d="M0 0 C2.31 1.98 4.62 3.96 7 6 C6.34 6.66 5.68 7.32 5 8 C0 2.25 0 2.25 0 0 Z " fill="#3C4170" transform="translate(202,310)"/>
<path d="M0 0 C0.99 0.33 1.98 0.66 3 1 C-0.465 3.97 -0.465 3.97 -4 7 C-3.04065919 3.16263678 -2.76390737 2.40339772 0 0 Z " fill="#5C5E80" transform="translate(360,291)"/>
<path d="M0 0 C0.99 0.33 1.98 0.66 3 1 C-0.465 3.97 -0.465 3.97 -4 7 C-3.04065919 3.16263678 -2.76390737 2.40339772 0 0 Z " fill="#6C6E8F" transform="translate(396,255)"/>
<path d="M0 0 C0.99 0.33 1.98 0.66 3 1 C-0.465 3.97 -0.465 3.97 -4 7 C-3.04065919 3.16263678 -2.76390737 2.40339772 0 0 Z " fill="#6A7292" transform="translate(408,243)"/>
<path d="M0 0 C0.99 0.33 1.98 0.66 3 1 C-0.465 3.97 -0.465 3.97 -4 7 C-3.04065919 3.16263678 -2.76390737 2.40339772 0 0 Z " fill="#6B6D92" transform="translate(425,226)"/>
<path d="M0 0 C0.99 0.33 1.98 0.66 3 1 C1.625 3.5 1.625 3.5 0 6 C-0.66 6 -1.32 6 -2 6 C-1.125 1.125 -1.125 1.125 0 0 Z " fill="#A44A54" transform="translate(196,221)"/>
<path d="M0 0 C5.66153846 1.47692308 5.66153846 1.47692308 7.375 4.125 C7.684375 5.053125 7.684375 5.053125 8 6 C7.01 6 6.02 6 5 6 C4.34 5.34 3.68 4.68 3 4 C2.46375 3.484375 1.9275 2.96875 1.375 2.4375 C0 1 0 1 0 0 Z " fill="#272A61" transform="translate(73,214)"/>
<path d="M0 0 C3.36720387 1.39332574 4.9859524 2.9789286 7 6 C4 6 4 6 1.8125 4.125 C0 2 0 2 0 0 Z " fill="#3D4165" transform="translate(393,191)"/>
<path d="M0 0 C3.77545388 1.09068668 6.47043472 1.9083091 9 5 C8.01 5.33 7.02 5.66 6 6 C6 5.34 6 4.68 6 4 C4.35 3.67 2.7 3.34 1 3 C0.67 2.01 0.34 1.02 0 0 Z " fill="#B75F57" transform="translate(267,128)"/>
<path d="M0 0 C2.475 0.99 2.475 0.99 5 2 C5 3.65 5 5.3 5 7 C1.18461538 4.53846154 1.18461538 4.53846154 0.25 1.8125 C0.1675 1.214375 0.085 0.61625 0 0 Z " fill="#616383" transform="translate(232,373)"/>
<path d="M0 0 C1.98 0 3.96 0 6 0 C6.33 1.32 6.66 2.64 7 4 C4.03 3.505 4.03 3.505 1 3 C0.67 2.01 0.34 1.02 0 0 Z " fill="#2C2E6F" transform="translate(222,363)"/>
<path d="M0 0 C0.6875 2.0625 0.6875 2.0625 1 4 C-1.02045442 3.39816251 -3.02111039 2.72693904 -5 2 C-5.33 1.34 -5.66 0.68 -6 0 C-3 -1 -3 -1 0 0 Z " fill="#313477" transform="translate(238,345)"/>
<path d="M0 0 C1.875 0.625 1.875 0.625 4 2 C5.25 5.125 5.25 5.125 6 8 C5.34 7.67 4.68 7.34 4 7 C4 6.34 4 5.68 4 5 C3.34 5 2.68 5 2 5 C1.34 3.35 0.68 1.7 0 0 Z " fill="#535676" transform="translate(99,240)"/>
<path d="M0 0 C2.78637633 4.1795645 1.79562512 6.14668677 1 11 C0.67 11 0.34 11 0 11 C-0.19491452 9.54263913 -0.38069358 8.08405407 -0.5625 6.625 C-0.66691406 5.81289062 -0.77132813 5.00078125 -0.87890625 4.1640625 C-1 2 -1 2 0 0 Z " fill="#A13E45" transform="translate(317,227)"/>
<path d="M0 0 C2.375 0.6875 2.375 0.6875 5 2 C6.3125 4.625 6.3125 4.625 7 7 C1.125 3.375 1.125 3.375 0 0 Z " fill="#BD6E61" transform="translate(262,157)"/>
<path d="M0 0 C2.66666667 0 5.33333333 0 8 0 C5.44008376 2.01136276 2.95409701 3.62845496 0 5 C0 3.35 0 1.7 0 0 Z " fill="#B54D4A" transform="translate(241,146)"/>
<path d="M0 0 C0.66 0 1.32 0 2 0 C1.3125 2.4375 1.3125 2.4375 0 5 C-2.625 5.8125 -2.625 5.8125 -5 6 C-3.38405168 3.95880212 -1.7143618 1.95927063 0 0 Z " fill="#35385B" transform="translate(141,134)"/>
<path d="M0 0 C1.98 0.99 1.98 0.99 4 2 C3.67 2.99 3.34 3.98 3 5 C2.34 5 1.68 5 1 5 C0.67 5.66 0.34 6.32 0 7 C0 4.69 0 2.38 0 0 Z " fill="#B64F48" transform="translate(206,99)"/>
<path d="" fill="#FFFFFF" transform="translate(0,0)"/>
<path d="" fill="#FFFFFF" transform="translate(0,0)"/>
<path d="" fill="#FFFFFF" transform="translate(0,0)"/>
<path d="" fill="#FFFFFF" transform="translate(0,0)"/>
<path d="" fill="#FFFFFF" transform="translate(0,0)"/>
<path d="" fill="#FFFFFF" transform="translate(0,0)"/>
<path d="" fill="#FFFFFF" transform="translate(0,0)"/>
<path d="" fill="#FFFFFF" transform="translate(0,0)"/>
<path d="" fill="#FFFFFF" transform="translate(0,0)"/>
<path d="" fill="#FFFFFF" transform="translate(0,0)"/>
<path d="" fill="#FFFFFF" transform="translate(0,0)"/>
<path d="" fill="#FFFFFF" transform="translate(0,0)"/>
<path d="" fill="#FFFFFF" transform="translate(0,0)"/>
<path d="" fill="#FFFFFF" transform="translate(0,0)"/>
<path d="" fill="#FFFFFF" transform="translate(0,0)"/>
<path d="" fill="#FFFFFF" transform="translate(0,0)"/>
<path d="" fill="#FFFFFF" transform="translate(0,0)"/>
<path d="" fill="#FFFFFF" transform="translate(0,0)"/>
<path d="" fill="#FFFFFF" transform="translate(0,0)"/>
<path d="" fill="#FFFFFF" transform="translate(0,0)"/>
<path d="" fill="#FFFFFF" transform="translate(0,0)"/>
<path d="" fill="#FFFFFF" transform="translate(0,0)"/>
<path d="" fill="#FFFFFF" transform="translate(0,0)"/>
<path d="" fill="#FFFFFF" transform="translate(0,0)"/>
<path d="" fill="#FFFFFF" transform="translate(0,0)"/>
<path d="" fill="#FFFFFF" transform="translate(0,0)"/>
<path d="" fill="#FFFFFF" transform="translate(0,0)"/>
<path d="" fill="#FFFFFF" transform="translate(0,0)"/>
<path d="" fill="#FFFFFF" transform="translate(0,0)"/>
<path d="" fill="#FFFFFF" transform="translate(0,0)"/>
<path d="" fill="#FFFFFF" transform="translate(0,0)"/>
<path d="" fill="#FFFFFF" transform="translate(0,0)"/>
<path d="" fill="#FFFFFF" transform="translate(0,0)"/>
<path d="" fill="#FFFFFF" transform="translate(0,0)"/>
<path d="" fill="#FFFFFF" transform="translate(0,0)"/>
<path d="" fill="#FFFFFF" transform="translate(0,0)"/>
<path d="" fill="#FFFFFF" transform="translate(0,0)"/>
<path d="" fill="#FFFFFF" transform="translate(0,0)"/>
<path d="" fill="#FFFFFF" transform="translate(0,0)"/>
<path d="" fill="#FFFFFF" transform="translate(0,0)"/>
<path d="" fill="#FFFFFF" transform="translate(0,0)"/>
<path d="" fill="#FFFFFF" transform="translate(0,0)"/>
<path d="" fill="#FFFFFF" transform="translate(0,0)"/>
<path d="" fill="#FFFFFF" transform="translate(0,0)"/>
<path d="" fill="#FFFFFF" transform="translate(0,0)"/>
<path d="" fill="#FFFFFF" transform="translate(0,0)"/>
<path d="" fill="#FFFFFF" transform="translate(0,0)"/>
<path d="" fill="#FFFFFF" transform="translate(0,0)"/>
<path d="" fill="#FFFFFF" transform="translate(0,0)"/>
<path d="" fill="#FFFFFF" transform="translate(0,0)"/>
<path d="" fill="#FFFFFF" transform="translate(0,0)"/>
<path d="" fill="#FFFFFF" transform="translate(0,0)"/>
<path d="" fill="#FFFFFF" transform="translate(0,0)"/>
<path d="" fill="#FFFFFF" transform="translate(0,0)"/>
<path d="" fill="#FFFFFF" transform="translate(0,0)"/>
<path d="" fill="#FFFFFF" transform="translate(0,0)"/>
<path d="" fill="#FFFFFF" transform="translate(0,0)"/>
<path d="" fill="#FFFFFF" transform="translate(0,0)"/>
<path d="" fill="#FFFFFF" transform="translate(0,0)"/>
<path d="" fill="#FFFFFF" transform="translate(0,0)"/>
<path d="" fill="#FFFFFF" transform="translate(0,0)"/>
<path d="" fill="#FFFFFF" transform="translate(0,0)"/>
<path d="" fill="#FFFFFF" transform="translate(0,0)"/>
<path d="" fill="#FFFFFF" transform="translate(0,0)"/>
<path d="" fill="#FFFFFF" transform="translate(0,0)"/>
<path d="" fill="#FFFFFF" transform="translate(0,0)"/>
<path d="" fill="#FFFFFF" transform="translate(0,0)"/>
<path d="" fill="#FFFFFF" transform="translate(0,0)"/>
<path d="" fill="#FFFFFF" transform="translate(0,0)"/>
<path d="" fill="#FFFFFF" transform="translate(0,0)"/>
<path d="" fill="#FFFFFF" transform="translate(0,0)"/>
<path d="" fill="#FFFFFF" transform="translate(0,0)"/>
<path d="" fill="#FFFFFF" transform="translate(0,0)"/>
<path d="" fill="#FFFFFF" transform="translate(0,0)"/>
<path d="" fill="#FFFFFF" transform="translate(0,0)"/>
<path d="" fill="#FFFFFF" transform="translate(0,0)"/>
<path d="" fill="#FFFFFF" transform="translate(0,0)"/>
<path d="" fill="#FFFFFF" transform="translate(0,0)"/>
<path d="" fill="#FFFFFF" transform="translate(0,0)"/>
</svg>
